<?xml version="1.0" encoding="utf-8"?>
<!-- Generator: Adobe Illustrator 27.5.0, SVG Export Plug-In . SVG Version: 6.00 Build 0)  -->
<svg version="1.1" xmlns="http://www.w3.org/2000/svg" xmlns:xlink="http://www.w3.org/1999/xlink" x="0px" y="0px"
	 viewBox="0 0 500 500" style="enable-background:new 0 0 500 500;" xml:space="preserve">
<g id="Background_Simple">
	<g>
		<path style="fill:#92E3A9;" d="M468.541,277.614c0,0,3.107-120.915-68.136-177.65c-62.889-50.081-151.048-59.204-211.981,0.572
			c-21.711,21.299-34.098,57.809-61.059,72.855c-30.23,16.871-70.855,27.746-92.568,82.514
			c-21.713,54.769-0.589,117.09,44.729,144.735c45.318,27.645,109.508-16.951,171.819-29.643
			C313.657,358.305,459.19,427.726,468.541,277.614z"/>
		<path style="opacity:0.7;fill:#FFFFFF;" d="M468.541,277.614c0,0,3.107-120.915-68.136-177.65
			c-62.889-50.081-151.048-59.204-211.981,0.572c-21.711,21.299-34.098,57.809-61.059,72.855
			c-30.23,16.871-70.855,27.746-92.568,82.514c-21.713,54.769-0.589,117.09,44.729,144.735
			c45.318,27.645,109.508-16.951,171.819-29.643C313.657,358.305,459.19,427.726,468.541,277.614z"/>
	</g>
</g>
<g id="Table">
	<g>
		
			<line style="fill:none;stroke:#263238;stroke-linecap:round;stroke-linejoin:round;stroke-miterlimit:10;" x1="449.557" y1="432.962" x2="461.861" y2="432.962"/>
		
			<line style="fill:none;stroke:#263238;stroke-linecap:round;stroke-linejoin:round;stroke-miterlimit:10;" x1="52.05" y1="432.962" x2="441.081" y2="432.962"/>
	</g>
</g>
<g id="Combs">
	<g>
		<path style="fill:none;stroke:#263238;stroke-linecap:round;stroke-linejoin:round;stroke-miterlimit:10;" d="M430.103,87.554
			h-29.612c-5.156,0-9.336,4.365-9.336,9.749v55.453c0,5.384,4.18,9.749,9.336,9.749h6.399c1.474,2.757,4.438,9.178,4.715,16.681
			c0.369,10.025-2.215,20.822-3.692,31.232c-0.774,5.458-0.737,12.082-0.526,17.149c0.184,4.426,3.668,7.914,7.91,7.914
			c4.242,0,7.726-3.488,7.91-7.914c0.211-5.067,0.249-11.691-0.526-17.149c-1.477-10.411-4.061-21.207-3.692-31.232
			c0.276-7.503,3.24-13.924,4.715-16.681h6.399c5.156,0,9.335-4.365,9.335-9.749V97.303
			C439.438,91.919,435.259,87.554,430.103,87.554z"/>
		<path style="fill:none;stroke:#263238;stroke-linecap:round;stroke-linejoin:round;stroke-miterlimit:10;" d="M428.18,156.822
			h-25.767c-3.488,0-6.316-2.828-6.316-6.316V99.518c0-3.488,2.828-6.316,6.316-6.316h25.767c3.488,0,6.316,2.828,6.316,6.316
			v50.989C434.497,153.995,431.669,156.822,428.18,156.822z"/>
		<g>
			<g>
				<path style="fill:none;stroke:#263238;stroke-linecap:round;stroke-linejoin:round;stroke-miterlimit:10;" d="M402.708,98.869
					c0-1.02-0.827-1.846-1.846-1.846c-1.02,0-1.846,0.826-1.846,1.846s0.827,1.846,1.846,1.846
					C401.882,100.715,402.708,99.889,402.708,98.869z"/>
				
					<circle style="fill:none;stroke:#263238;stroke-linecap:round;stroke-linejoin:round;stroke-miterlimit:10;" cx="406.77" cy="98.869" r="1.846"/>
				
					<circle style="fill:none;stroke:#263238;stroke-linecap:round;stroke-linejoin:round;stroke-miterlimit:10;" cx="412.677" cy="98.869" r="1.846"/>
				
					<circle style="fill:none;stroke:#263238;stroke-linecap:round;stroke-linejoin:round;stroke-miterlimit:10;" cx="418.585" cy="98.869" r="1.846"/>
				
					<circle style="fill:none;stroke:#263238;stroke-linecap:round;stroke-linejoin:round;stroke-miterlimit:10;" cx="424.492" cy="98.869" r="1.846"/>
				
					<circle style="fill:none;stroke:#263238;stroke-linecap:round;stroke-linejoin:round;stroke-miterlimit:10;" cx="430.4" cy="98.869" r="1.846"/>
			</g>
			<g>
				<path style="fill:none;stroke:#263238;stroke-linecap:round;stroke-linejoin:round;stroke-miterlimit:10;" d="M402.708,105.515
					c0-1.02-0.827-1.846-1.846-1.846c-1.02,0-1.846,0.826-1.846,1.846c0,1.02,0.827,1.846,1.846,1.846
					C401.882,107.362,402.708,106.535,402.708,105.515z"/>
				
					<circle style="fill:none;stroke:#263238;stroke-linecap:round;stroke-linejoin:round;stroke-miterlimit:10;" cx="406.77" cy="105.515" r="1.846"/>
				
					<circle style="fill:none;stroke:#263238;stroke-linecap:round;stroke-linejoin:round;stroke-miterlimit:10;" cx="412.677" cy="105.515" r="1.846"/>
				
					<circle style="fill:none;stroke:#263238;stroke-linecap:round;stroke-linejoin:round;stroke-miterlimit:10;" cx="418.585" cy="105.515" r="1.846"/>
				
					<circle style="fill:none;stroke:#263238;stroke-linecap:round;stroke-linejoin:round;stroke-miterlimit:10;" cx="424.492" cy="105.515" r="1.846"/>
				
					<circle style="fill:none;stroke:#263238;stroke-linecap:round;stroke-linejoin:round;stroke-miterlimit:10;" cx="430.4" cy="105.515" r="1.846"/>
			</g>
			<g>
				<path style="fill:none;stroke:#263238;stroke-linecap:round;stroke-linejoin:round;stroke-miterlimit:10;" d="M402.708,112.161
					c0-1.02-0.827-1.846-1.846-1.846c-1.02,0-1.846,0.826-1.846,1.846s0.827,1.846,1.846,1.846
					C401.882,114.007,402.708,113.181,402.708,112.161z"/>
				
					<circle style="fill:none;stroke:#263238;stroke-linecap:round;stroke-linejoin:round;stroke-miterlimit:10;" cx="406.77" cy="112.161" r="1.846"/>
				
					<circle style="fill:none;stroke:#263238;stroke-linecap:round;stroke-linejoin:round;stroke-miterlimit:10;" cx="412.677" cy="112.161" r="1.846"/>
				
					<circle style="fill:none;stroke:#263238;stroke-linecap:round;stroke-linejoin:round;stroke-miterlimit:10;" cx="418.585" cy="112.161" r="1.846"/>
				
					<circle style="fill:none;stroke:#263238;stroke-linecap:round;stroke-linejoin:round;stroke-miterlimit:10;" cx="424.492" cy="112.161" r="1.846"/>
				
					<circle style="fill:none;stroke:#263238;stroke-linecap:round;stroke-linejoin:round;stroke-miterlimit:10;" cx="430.4" cy="112.161" r="1.846"/>
			</g>
			<g>
				<path style="fill:none;stroke:#263238;stroke-linecap:round;stroke-linejoin:round;stroke-miterlimit:10;" d="M402.708,118.807
					c0-1.02-0.827-1.846-1.846-1.846c-1.02,0-1.846,0.826-1.846,1.846c0,1.019,0.827,1.846,1.846,1.846
					C401.882,120.654,402.708,119.827,402.708,118.807z"/>
				
					<circle style="fill:none;stroke:#263238;stroke-linecap:round;stroke-linejoin:round;stroke-miterlimit:10;" cx="406.77" cy="118.807" r="1.846"/>
				
					<circle style="fill:none;stroke:#263238;stroke-linecap:round;stroke-linejoin:round;stroke-miterlimit:10;" cx="412.677" cy="118.807" r="1.846"/>
				
					<circle style="fill:none;stroke:#263238;stroke-linecap:round;stroke-linejoin:round;stroke-miterlimit:10;" cx="418.585" cy="118.807" r="1.846"/>
				
					<circle style="fill:none;stroke:#263238;stroke-linecap:round;stroke-linejoin:round;stroke-miterlimit:10;" cx="424.492" cy="118.807" r="1.846"/>
				
					<circle style="fill:none;stroke:#263238;stroke-linecap:round;stroke-linejoin:round;stroke-miterlimit:10;" cx="430.4" cy="118.807" r="1.846"/>
			</g>
			<g>
				<path style="fill:none;stroke:#263238;stroke-linecap:round;stroke-linejoin:round;stroke-miterlimit:10;" d="M402.708,125.453
					c0-1.02-0.827-1.846-1.846-1.846c-1.02,0-1.846,0.827-1.846,1.846c0,1.02,0.827,1.846,1.846,1.846
					C401.882,127.299,402.708,126.473,402.708,125.453z"/>
				
					<circle style="fill:none;stroke:#263238;stroke-linecap:round;stroke-linejoin:round;stroke-miterlimit:10;" cx="406.77" cy="125.453" r="1.846"/>
				
					<circle style="fill:none;stroke:#263238;stroke-linecap:round;stroke-linejoin:round;stroke-miterlimit:10;" cx="412.677" cy="125.453" r="1.846"/>
				
					<circle style="fill:none;stroke:#263238;stroke-linecap:round;stroke-linejoin:round;stroke-miterlimit:10;" cx="418.585" cy="125.453" r="1.846"/>
				
					<circle style="fill:none;stroke:#263238;stroke-linecap:round;stroke-linejoin:round;stroke-miterlimit:10;" cx="424.492" cy="125.453" r="1.846"/>
				
					<circle style="fill:none;stroke:#263238;stroke-linecap:round;stroke-linejoin:round;stroke-miterlimit:10;" cx="430.4" cy="125.453" r="1.846"/>
			</g>
			<g>
				<path style="fill:none;stroke:#263238;stroke-linecap:round;stroke-linejoin:round;stroke-miterlimit:10;" d="M402.708,132.099
					c0-1.02-0.827-1.846-1.846-1.846c-1.02,0-1.846,0.826-1.846,1.846c0,1.02,0.827,1.846,1.846,1.846
					C401.882,133.945,402.708,133.119,402.708,132.099z"/>
				
					<circle style="fill:none;stroke:#263238;stroke-linecap:round;stroke-linejoin:round;stroke-miterlimit:10;" cx="406.77" cy="132.099" r="1.846"/>
				
					<circle style="fill:none;stroke:#263238;stroke-linecap:round;stroke-linejoin:round;stroke-miterlimit:10;" cx="412.677" cy="132.099" r="1.846"/>
				
					<circle style="fill:none;stroke:#263238;stroke-linecap:round;stroke-linejoin:round;stroke-miterlimit:10;" cx="418.585" cy="132.099" r="1.846"/>
				
					<circle style="fill:none;stroke:#263238;stroke-linecap:round;stroke-linejoin:round;stroke-miterlimit:10;" cx="424.492" cy="132.099" r="1.846"/>
				
					<circle style="fill:none;stroke:#263238;stroke-linecap:round;stroke-linejoin:round;stroke-miterlimit:10;" cx="430.4" cy="132.099" r="1.846"/>
			</g>
			<g>
				<path style="fill:none;stroke:#263238;stroke-linecap:round;stroke-linejoin:round;stroke-miterlimit:10;" d="M402.708,138.745
					c0-1.02-0.827-1.846-1.846-1.846c-1.02,0-1.846,0.826-1.846,1.846c0,1.02,0.827,1.846,1.846,1.846
					C401.882,140.591,402.708,139.765,402.708,138.745z"/>
				
					<circle style="fill:none;stroke:#263238;stroke-linecap:round;stroke-linejoin:round;stroke-miterlimit:10;" cx="406.77" cy="138.745" r="1.846"/>
				
					<circle style="fill:none;stroke:#263238;stroke-linecap:round;stroke-linejoin:round;stroke-miterlimit:10;" cx="412.677" cy="138.745" r="1.846"/>
				
					<circle style="fill:none;stroke:#263238;stroke-linecap:round;stroke-linejoin:round;stroke-miterlimit:10;" cx="418.585" cy="138.745" r="1.846"/>
				
					<circle style="fill:none;stroke:#263238;stroke-linecap:round;stroke-linejoin:round;stroke-miterlimit:10;" cx="424.492" cy="138.745" r="1.846"/>
				
					<circle style="fill:none;stroke:#263238;stroke-linecap:round;stroke-linejoin:round;stroke-miterlimit:10;" cx="430.4" cy="138.745" r="1.846"/>
			</g>
			<g>
				<path style="fill:none;stroke:#263238;stroke-linecap:round;stroke-linejoin:round;stroke-miterlimit:10;" d="M402.708,145.391
					c0-1.02-0.827-1.846-1.846-1.846c-1.02,0-1.846,0.827-1.846,1.846c0,1.02,0.827,1.846,1.846,1.846
					C401.882,147.237,402.708,146.411,402.708,145.391z"/>
				
					<circle style="fill:none;stroke:#263238;stroke-linecap:round;stroke-linejoin:round;stroke-miterlimit:10;" cx="406.77" cy="145.391" r="1.846"/>
				
					<circle style="fill:none;stroke:#263238;stroke-linecap:round;stroke-linejoin:round;stroke-miterlimit:10;" cx="412.677" cy="145.391" r="1.846"/>
				
					<circle style="fill:none;stroke:#263238;stroke-linecap:round;stroke-linejoin:round;stroke-miterlimit:10;" cx="418.585" cy="145.391" r="1.846"/>
				
					<circle style="fill:none;stroke:#263238;stroke-linecap:round;stroke-linejoin:round;stroke-miterlimit:10;" cx="424.492" cy="145.391" r="1.846"/>
				
					<circle style="fill:none;stroke:#263238;stroke-linecap:round;stroke-linejoin:round;stroke-miterlimit:10;" cx="430.4" cy="145.391" r="1.846"/>
			</g>
			<g>
				<path style="fill:none;stroke:#263238;stroke-linecap:round;stroke-linejoin:round;stroke-miterlimit:10;" d="M402.708,152.037
					c0-1.02-0.827-1.846-1.846-1.846c-1.02,0-1.846,0.827-1.846,1.846c0,1.02,0.827,1.846,1.846,1.846
					C401.882,153.883,402.708,153.057,402.708,152.037z"/>
				
					<circle style="fill:none;stroke:#263238;stroke-linecap:round;stroke-linejoin:round;stroke-miterlimit:10;" cx="406.77" cy="152.037" r="1.846"/>
				
					<circle style="fill:none;stroke:#263238;stroke-linecap:round;stroke-linejoin:round;stroke-miterlimit:10;" cx="412.677" cy="152.037" r="1.846"/>
				
					<circle style="fill:none;stroke:#263238;stroke-linecap:round;stroke-linejoin:round;stroke-miterlimit:10;" cx="418.585" cy="152.037" r="1.846"/>
				
					<circle style="fill:none;stroke:#263238;stroke-linecap:round;stroke-linejoin:round;stroke-miterlimit:10;" cx="424.492" cy="152.037" r="1.846"/>
				
					<circle style="fill:none;stroke:#263238;stroke-linecap:round;stroke-linejoin:round;stroke-miterlimit:10;" cx="430.4" cy="152.037" r="1.846"/>
			</g>
		</g>
	</g>
	<g>
		<path style="fill:none;stroke:#263238;stroke-linecap:round;stroke-linejoin:round;stroke-miterlimit:10;" d="M326.583,136.346
			l13.25-20.538c2.307-3.576,1.15-8.428-2.584-10.837l-38.461-24.814c-3.734-2.409-8.632-1.464-10.939,2.112l-2.863,4.438
			c-2.572-0.211-8.352-1.029-13.679-4.194c-7.118-4.23-13.45-10.853-20.009-16.536c-3.439-2.979-8.05-5.917-11.659-8.038
			c-3.152-1.853-7.13-0.997-9.028,1.945c-1.898,2.942-1.038,6.919,1.949,9.028c3.42,2.414,7.997,5.404,12.129,7.309
			c7.881,3.634,16.526,6.673,23.314,11.415c5.08,3.549,8.207,8.478,9.46,10.734l-2.863,4.438c-2.307,3.576-1.15,8.428,2.584,10.837
			l38.461,24.814C319.379,140.868,324.276,139.922,326.583,136.346z"/>
		<path style="fill:none;stroke:#263238;stroke-linecap:round;stroke-linejoin:round;stroke-miterlimit:10;" d="M279.999,103.09
			l10.334-16.018c1.891-2.931,5.801-3.774,8.732-1.883l33.511,21.62c2.931,1.891,3.774,5.8,1.883,8.732l-10.334,16.018
			c-1.891,2.931-5.8,3.774-8.732,1.883l-33.511-21.62C278.951,109.931,278.108,106.022,279.999,103.09z"/>
		<g>
			<g>
				<path style="fill:none;stroke:#263238;stroke-linecap:round;stroke-linejoin:round;stroke-miterlimit:10;" d="M330.993,112.283
					c0.707,0.456,1.65,0.253,2.107-0.454c0.456-0.707,0.253-1.65-0.454-2.106c-0.707-0.456-1.65-0.253-2.107,0.454
					C330.083,110.883,330.286,111.826,330.993,112.283z"/>
				<path style="fill:none;stroke:#263238;stroke-linecap:round;stroke-linejoin:round;stroke-miterlimit:10;" d="M328.35,116.38
					c0.707,0.456,1.65,0.253,2.106-0.454c0.456-0.707,0.253-1.65-0.454-2.106c-0.707-0.456-1.65-0.253-2.107,0.454
					C327.439,114.981,327.643,115.924,328.35,116.38z"/>
				<path style="fill:none;stroke:#263238;stroke-linecap:round;stroke-linejoin:round;stroke-miterlimit:10;" d="M325.707,120.477
					c0.707,0.456,1.65,0.253,2.106-0.454c0.456-0.707,0.253-1.65-0.454-2.107c-0.707-0.456-1.65-0.253-2.106,0.454
					C324.796,119.078,324.999,120.021,325.707,120.477z"/>
				<path style="fill:none;stroke:#263238;stroke-linecap:round;stroke-linejoin:round;stroke-miterlimit:10;" d="M323.063,124.575
					c0.707,0.456,1.65,0.253,2.106-0.454c0.456-0.707,0.253-1.65-0.454-2.106c-0.707-0.456-1.65-0.253-2.107,0.454
					C322.153,123.175,322.356,124.118,323.063,124.575z"/>
				<path style="fill:none;stroke:#263238;stroke-linecap:round;stroke-linejoin:round;stroke-miterlimit:10;" d="M320.42,128.672
					c0.707,0.456,1.65,0.253,2.106-0.454c0.456-0.707,0.253-1.65-0.454-2.106c-0.707-0.456-1.65-0.253-2.107,0.454
					C319.509,127.272,319.713,128.216,320.42,128.672z"/>
				<path style="fill:none;stroke:#263238;stroke-linecap:round;stroke-linejoin:round;stroke-miterlimit:10;" d="M317.776,132.769
					c0.707,0.456,1.65,0.253,2.106-0.454c0.456-0.707,0.253-1.65-0.454-2.107c-0.707-0.456-1.65-0.253-2.106,0.454
					C316.866,131.37,317.069,132.313,317.776,132.769z"/>
			</g>
			<g>
				<path style="fill:none;stroke:#263238;stroke-linecap:round;stroke-linejoin:round;stroke-miterlimit:10;" d="M326.384,109.309
					c0.707,0.456,1.65,0.253,2.106-0.454c0.456-0.707,0.253-1.65-0.454-2.106c-0.707-0.456-1.65-0.253-2.107,0.454
					C325.473,107.91,325.677,108.853,326.384,109.309z"/>
				<path style="fill:none;stroke:#263238;stroke-linecap:round;stroke-linejoin:round;stroke-miterlimit:10;" d="M323.741,113.406
					c0.707,0.456,1.65,0.253,2.107-0.454c0.456-0.707,0.253-1.65-0.454-2.106c-0.707-0.456-1.65-0.253-2.106,0.454
					C322.83,112.007,323.033,112.95,323.741,113.406z"/>
				<path style="fill:none;stroke:#263238;stroke-linecap:round;stroke-linejoin:round;stroke-miterlimit:10;" d="M321.097,117.503
					c0.707,0.456,1.65,0.253,2.106-0.454c0.456-0.707,0.253-1.65-0.454-2.107c-0.707-0.456-1.65-0.253-2.107,0.454
					C320.187,116.104,320.39,117.047,321.097,117.503z"/>
				<path style="fill:none;stroke:#263238;stroke-linecap:round;stroke-linejoin:round;stroke-miterlimit:10;" d="M318.454,121.601
					c0.707,0.456,1.65,0.253,2.106-0.454c0.456-0.707,0.253-1.65-0.454-2.106c-0.707-0.456-1.65-0.253-2.107,0.454
					C317.543,120.201,317.747,121.145,318.454,121.601z"/>
				<path style="fill:none;stroke:#263238;stroke-linecap:round;stroke-linejoin:round;stroke-miterlimit:10;" d="M315.81,125.698
					c0.707,0.456,1.65,0.253,2.106-0.454c0.456-0.707,0.253-1.65-0.454-2.106c-0.707-0.456-1.65-0.253-2.107,0.454
					C314.9,124.299,315.103,125.242,315.81,125.698z"/>
				<path style="fill:none;stroke:#263238;stroke-linecap:round;stroke-linejoin:round;stroke-miterlimit:10;" d="M313.167,129.795
					c0.707,0.456,1.65,0.253,2.107-0.454c0.456-0.707,0.253-1.65-0.454-2.106c-0.707-0.456-1.65-0.253-2.107,0.454
					C312.256,128.396,312.46,129.339,313.167,129.795z"/>
			</g>
			<g>
				<path style="fill:none;stroke:#263238;stroke-linecap:round;stroke-linejoin:round;stroke-miterlimit:10;" d="M321.775,106.335
					c0.707,0.456,1.65,0.253,2.107-0.454c0.456-0.707,0.253-1.65-0.454-2.106c-0.707-0.456-1.65-0.253-2.106,0.454
					C320.864,104.936,321.067,105.879,321.775,106.335z"/>
				<path style="fill:none;stroke:#263238;stroke-linecap:round;stroke-linejoin:round;stroke-miterlimit:10;" d="M319.131,110.432
					c0.707,0.456,1.65,0.253,2.106-0.454c0.456-0.707,0.253-1.65-0.454-2.106c-0.707-0.456-1.65-0.253-2.107,0.454
					C318.221,109.033,318.424,109.976,319.131,110.432z"/>
				<path style="fill:none;stroke:#263238;stroke-linecap:round;stroke-linejoin:round;stroke-miterlimit:10;" d="M316.488,114.53
					c0.707,0.456,1.65,0.253,2.107-0.454c0.456-0.707,0.253-1.65-0.454-2.107c-0.707-0.456-1.65-0.253-2.107,0.454
					C315.577,113.13,315.781,114.073,316.488,114.53z"/>
				<path style="fill:none;stroke:#263238;stroke-linecap:round;stroke-linejoin:round;stroke-miterlimit:10;" d="M313.844,118.627
					c0.707,0.456,1.65,0.253,2.106-0.454c0.456-0.707,0.253-1.65-0.454-2.106c-0.707-0.456-1.65-0.253-2.107,0.454
					C312.934,117.228,313.137,118.171,313.844,118.627z"/>
				<path style="fill:none;stroke:#263238;stroke-linecap:round;stroke-linejoin:round;stroke-miterlimit:10;" d="M311.201,122.724
					c0.707,0.456,1.65,0.253,2.106-0.454c0.456-0.707,0.253-1.65-0.454-2.106c-0.707-0.456-1.65-0.253-2.107,0.454
					C310.29,121.325,310.494,122.268,311.201,122.724z"/>
				<path style="fill:none;stroke:#263238;stroke-linecap:round;stroke-linejoin:round;stroke-miterlimit:10;" d="M308.557,126.821
					c0.707,0.456,1.65,0.253,2.106-0.454c0.456-0.707,0.253-1.65-0.454-2.107c-0.707-0.456-1.65-0.253-2.106,0.454
					C307.647,125.422,307.85,126.365,308.557,126.821z"/>
			</g>
			<g>
				<path style="fill:none;stroke:#263238;stroke-linecap:round;stroke-linejoin:round;stroke-miterlimit:10;" d="M317.165,103.361
					c0.707,0.456,1.65,0.253,2.107-0.454c0.456-0.707,0.253-1.65-0.454-2.106c-0.707-0.456-1.65-0.253-2.107,0.454
					C316.255,101.962,316.458,102.905,317.165,103.361z"/>
				<path style="fill:none;stroke:#263238;stroke-linecap:round;stroke-linejoin:round;stroke-miterlimit:10;" d="M314.522,107.458
					c0.707,0.456,1.65,0.253,2.107-0.454c0.456-0.707,0.253-1.65-0.454-2.106c-0.707-0.456-1.65-0.253-2.106,0.454
					C313.611,106.059,313.814,107.002,314.522,107.458z"/>
				<path style="fill:none;stroke:#263238;stroke-linecap:round;stroke-linejoin:round;stroke-miterlimit:10;" d="M311.878,111.556
					c0.707,0.456,1.65,0.253,2.106-0.454c0.456-0.707,0.253-1.65-0.454-2.106c-0.707-0.456-1.65-0.253-2.107,0.454
					C310.968,110.156,311.171,111.099,311.878,111.556z"/>
				<path style="fill:none;stroke:#263238;stroke-linecap:round;stroke-linejoin:round;stroke-miterlimit:10;" d="M309.235,115.653
					c0.707,0.456,1.65,0.253,2.107-0.454c0.456-0.707,0.253-1.65-0.454-2.106c-0.707-0.456-1.65-0.253-2.107,0.454
					C308.324,114.254,308.528,115.197,309.235,115.653z"/>
				<path style="fill:none;stroke:#263238;stroke-linecap:round;stroke-linejoin:round;stroke-miterlimit:10;" d="M306.591,119.75
					c0.707,0.456,1.65,0.253,2.107-0.454c0.456-0.707,0.253-1.65-0.454-2.106c-0.707-0.456-1.65-0.253-2.107,0.454
					C305.681,118.351,305.884,119.294,306.591,119.75z"/>
				<path style="fill:none;stroke:#263238;stroke-linecap:round;stroke-linejoin:round;stroke-miterlimit:10;" d="M303.948,123.848
					c0.707,0.456,1.65,0.253,2.107-0.454c0.456-0.707,0.253-1.65-0.454-2.107c-0.707-0.456-1.65-0.253-2.107,0.454
					C303.037,122.448,303.241,123.391,303.948,123.848z"/>
			</g>
			<g>
				<path style="fill:none;stroke:#263238;stroke-linecap:round;stroke-linejoin:round;stroke-miterlimit:10;" d="M312.556,100.387
					c0.707,0.456,1.65,0.253,2.107-0.454c0.456-0.707,0.253-1.65-0.454-2.106c-0.707-0.456-1.65-0.253-2.106,0.454
					C311.645,98.988,311.848,99.931,312.556,100.387z"/>
				<path style="fill:none;stroke:#263238;stroke-linecap:round;stroke-linejoin:round;stroke-miterlimit:10;" d="M309.912,104.484
					c0.707,0.456,1.65,0.253,2.107-0.454c0.456-0.707,0.253-1.65-0.454-2.106c-0.707-0.456-1.65-0.253-2.107,0.454
					C309.002,103.085,309.205,104.028,309.912,104.484z"/>
				<path style="fill:none;stroke:#263238;stroke-linecap:round;stroke-linejoin:round;stroke-miterlimit:10;" d="M307.269,108.582
					c0.707,0.456,1.65,0.253,2.107-0.454c0.456-0.707,0.253-1.65-0.454-2.106c-0.707-0.456-1.65-0.253-2.107,0.454
					C306.358,107.183,306.562,108.126,307.269,108.582z"/>
				<path style="fill:none;stroke:#263238;stroke-linecap:round;stroke-linejoin:round;stroke-miterlimit:10;" d="M304.625,112.679
					c0.707,0.456,1.65,0.253,2.106-0.454c0.456-0.707,0.253-1.65-0.454-2.106c-0.707-0.456-1.65-0.253-2.107,0.454
					C303.715,111.28,303.918,112.223,304.625,112.679z"/>
				<path style="fill:none;stroke:#263238;stroke-linecap:round;stroke-linejoin:round;stroke-miterlimit:10;" d="M301.982,116.776
					c0.707,0.456,1.65,0.253,2.107-0.454c0.456-0.707,0.253-1.65-0.454-2.106c-0.707-0.456-1.65-0.253-2.107,0.454
					C301.071,115.377,301.275,116.32,301.982,116.776z"/>
				<path style="fill:none;stroke:#263238;stroke-linecap:round;stroke-linejoin:round;stroke-miterlimit:10;" d="M299.339,120.874
					c0.707,0.456,1.65,0.253,2.107-0.454c0.456-0.707,0.253-1.65-0.454-2.106c-0.707-0.456-1.65-0.253-2.106,0.454
					C298.428,119.474,298.631,120.417,299.339,120.874z"/>
			</g>
			<g>
				<path style="fill:none;stroke:#263238;stroke-linecap:round;stroke-linejoin:round;stroke-miterlimit:10;" d="M307.946,97.413
					c0.707,0.456,1.65,0.253,2.107-0.454c0.456-0.707,0.253-1.65-0.454-2.106c-0.707-0.456-1.65-0.253-2.107,0.454
					C307.036,96.014,307.239,96.957,307.946,97.413z"/>
				<path style="fill:none;stroke:#263238;stroke-linecap:round;stroke-linejoin:round;stroke-miterlimit:10;" d="M305.303,101.511
					c0.707,0.456,1.65,0.253,2.107-0.454c0.456-0.707,0.253-1.65-0.454-2.106c-0.707-0.456-1.65-0.253-2.106,0.454
					C304.392,100.111,304.596,101.054,305.303,101.511z"/>
				<path style="fill:none;stroke:#263238;stroke-linecap:round;stroke-linejoin:round;stroke-miterlimit:10;" d="M302.659,105.608
					c0.707,0.456,1.65,0.253,2.106-0.454c0.456-0.707,0.253-1.65-0.454-2.107c-0.707-0.456-1.65-0.253-2.107,0.454
					C301.749,104.209,301.952,105.152,302.659,105.608z"/>
				<path style="fill:none;stroke:#263238;stroke-linecap:round;stroke-linejoin:round;stroke-miterlimit:10;" d="M300.016,109.705
					c0.707,0.456,1.65,0.253,2.107-0.454c0.456-0.707,0.253-1.65-0.454-2.106c-0.707-0.456-1.65-0.253-2.107,0.454
					C299.105,108.306,299.309,109.249,300.016,109.705z"/>
				<path style="fill:none;stroke:#263238;stroke-linecap:round;stroke-linejoin:round;stroke-miterlimit:10;" d="M297.372,113.802
					c0.707,0.456,1.65,0.253,2.107-0.454c0.456-0.707,0.253-1.65-0.454-2.106c-0.707-0.456-1.65-0.253-2.106,0.454
					C296.462,112.403,296.665,113.346,297.372,113.802z"/>
				<path style="fill:none;stroke:#263238;stroke-linecap:round;stroke-linejoin:round;stroke-miterlimit:10;" d="M294.729,117.9
					c0.707,0.456,1.65,0.253,2.106-0.454c0.456-0.707,0.253-1.65-0.454-2.107c-0.707-0.456-1.65-0.253-2.107,0.454
					C293.818,116.501,294.022,117.444,294.729,117.9z"/>
			</g>
			<g>
				<path style="fill:none;stroke:#263238;stroke-linecap:round;stroke-linejoin:round;stroke-miterlimit:10;" d="M303.337,94.439
					c0.707,0.456,1.65,0.253,2.107-0.454c0.456-0.707,0.253-1.65-0.454-2.106c-0.707-0.456-1.65-0.253-2.106,0.454
					C302.426,93.04,302.63,93.983,303.337,94.439z"/>
				<path style="fill:none;stroke:#263238;stroke-linecap:round;stroke-linejoin:round;stroke-miterlimit:10;" d="M300.693,98.537
					c0.707,0.456,1.65,0.253,2.107-0.454c0.456-0.707,0.253-1.65-0.454-2.106c-0.707-0.456-1.65-0.253-2.107,0.454
					C299.783,97.137,299.986,98.081,300.693,98.537z"/>
				<path style="fill:none;stroke:#263238;stroke-linecap:round;stroke-linejoin:round;stroke-miterlimit:10;" d="M298.05,102.634
					c0.707,0.456,1.65,0.253,2.107-0.454c0.456-0.707,0.253-1.65-0.454-2.106c-0.707-0.456-1.65-0.253-2.107,0.454
					C297.139,101.235,297.343,102.178,298.05,102.634z"/>
				<path style="fill:none;stroke:#263238;stroke-linecap:round;stroke-linejoin:round;stroke-miterlimit:10;" d="M295.406,106.731
					c0.707,0.456,1.65,0.253,2.106-0.454c0.456-0.707,0.253-1.65-0.454-2.106c-0.707-0.456-1.65-0.253-2.107,0.454
					C294.496,105.332,294.699,106.275,295.406,106.731z"/>
				<path style="fill:none;stroke:#263238;stroke-linecap:round;stroke-linejoin:round;stroke-miterlimit:10;" d="M292.763,110.829
					c0.707,0.456,1.65,0.253,2.107-0.454c0.456-0.707,0.253-1.65-0.454-2.106c-0.707-0.456-1.65-0.253-2.107,0.454
					C291.853,109.429,292.056,110.372,292.763,110.829z"/>
				<path style="fill:none;stroke:#263238;stroke-linecap:round;stroke-linejoin:round;stroke-miterlimit:10;" d="M290.12,114.926
					c0.707,0.456,1.65,0.253,2.107-0.454c0.456-0.707,0.253-1.65-0.454-2.107c-0.707-0.456-1.65-0.253-2.106,0.454
					C289.209,113.527,289.412,114.47,290.12,114.926z"/>
			</g>
			<g>
				<path style="fill:none;stroke:#263238;stroke-linecap:round;stroke-linejoin:round;stroke-miterlimit:10;" d="M298.727,91.466
					c0.707,0.456,1.65,0.253,2.107-0.454s0.253-1.65-0.454-2.106c-0.707-0.456-1.65-0.253-2.107,0.454
					C297.817,90.066,298.02,91.009,298.727,91.466z"/>
				<path style="fill:none;stroke:#263238;stroke-linecap:round;stroke-linejoin:round;stroke-miterlimit:10;" d="M296.084,95.563
					c0.707,0.456,1.65,0.253,2.107-0.454c0.456-0.707,0.253-1.65-0.454-2.106c-0.707-0.456-1.65-0.253-2.106,0.454
					C295.173,94.164,295.377,95.107,296.084,95.563z"/>
				<path style="fill:none;stroke:#263238;stroke-linecap:round;stroke-linejoin:round;stroke-miterlimit:10;" d="M293.44,99.66
					c0.707,0.456,1.65,0.253,2.106-0.454c0.456-0.707,0.253-1.65-0.454-2.106c-0.707-0.456-1.65-0.253-2.107,0.454
					C292.53,98.261,292.733,99.204,293.44,99.66z"/>
				<path style="fill:none;stroke:#263238;stroke-linecap:round;stroke-linejoin:round;stroke-miterlimit:10;" d="M290.797,103.757
					c0.707,0.456,1.65,0.253,2.107-0.454c0.456-0.707,0.253-1.65-0.454-2.106c-0.707-0.456-1.65-0.253-2.107,0.454
					C289.887,102.358,290.09,103.301,290.797,103.757z"/>
				<path style="fill:none;stroke:#263238;stroke-linecap:round;stroke-linejoin:round;stroke-miterlimit:10;" d="M288.154,107.855
					c0.707,0.456,1.65,0.253,2.107-0.454c0.456-0.707,0.253-1.65-0.454-2.106c-0.707-0.456-1.65-0.253-2.106,0.454
					C287.243,106.455,287.446,107.398,288.154,107.855z"/>
				<path style="fill:none;stroke:#263238;stroke-linecap:round;stroke-linejoin:round;stroke-miterlimit:10;" d="M285.51,111.952
					c0.707,0.456,1.65,0.253,2.107-0.454c0.456-0.707,0.253-1.65-0.454-2.106c-0.707-0.456-1.65-0.253-2.107,0.454
					C284.6,110.553,284.803,111.496,285.51,111.952z"/>
			</g>
			<g>
				<path style="fill:none;stroke:#263238;stroke-linecap:round;stroke-linejoin:round;stroke-miterlimit:10;" d="M294.118,88.492
					c0.707,0.456,1.65,0.253,2.107-0.454c0.456-0.707,0.253-1.65-0.454-2.106c-0.707-0.456-1.65-0.253-2.106,0.454
					C293.207,87.092,293.411,88.035,294.118,88.492z"/>
				<path style="fill:none;stroke:#263238;stroke-linecap:round;stroke-linejoin:round;stroke-miterlimit:10;" d="M291.474,92.589
					c0.707,0.456,1.65,0.253,2.106-0.454c0.456-0.707,0.253-1.65-0.454-2.106c-0.707-0.456-1.65-0.253-2.107,0.454
					C290.564,91.19,290.767,92.133,291.474,92.589z"/>
				<path style="fill:none;stroke:#263238;stroke-linecap:round;stroke-linejoin:round;stroke-miterlimit:10;" d="M288.831,96.686
					c0.707,0.456,1.65,0.253,2.107-0.454s0.253-1.65-0.454-2.106c-0.707-0.456-1.65-0.253-2.106,0.454
					C287.921,95.287,288.124,96.23,288.831,96.686z"/>
				<path style="fill:none;stroke:#263238;stroke-linecap:round;stroke-linejoin:round;stroke-miterlimit:10;" d="M286.188,100.784
					c0.707,0.456,1.65,0.253,2.106-0.454c0.456-0.707,0.253-1.65-0.454-2.106c-0.707-0.456-1.65-0.253-2.107,0.454
					C285.277,99.384,285.48,100.327,286.188,100.784z"/>
				<path style="fill:none;stroke:#263238;stroke-linecap:round;stroke-linejoin:round;stroke-miterlimit:10;" d="M283.544,104.881
					c0.707,0.456,1.65,0.253,2.107-0.454c0.456-0.707,0.253-1.65-0.454-2.106c-0.707-0.456-1.65-0.253-2.107,0.454
					C282.634,103.482,282.837,104.425,283.544,104.881z"/>
				<path style="fill:none;stroke:#263238;stroke-linecap:round;stroke-linejoin:round;stroke-miterlimit:10;" d="M280.901,108.978
					c0.707,0.456,1.65,0.253,2.107-0.454c0.456-0.707,0.253-1.65-0.454-2.107c-0.707-0.456-1.65-0.253-2.106,0.454
					C279.99,107.579,280.193,108.522,280.901,108.978z"/>
			</g>
		</g>
	</g>
	<path style="fill:none;stroke:#263238;stroke-linecap:round;stroke-linejoin:round;stroke-miterlimit:10;" d="M175.576,63.518
		c-0.046-0.02-0.093-0.04-0.139-0.059c-5.449-2.243-11.818,3.628-16.049,6.305c-6.766,4.28-13.532,8.56-20.298,12.84
		c-1.462,0.925-2.925,1.85-4.387,2.775c0,0-19.975,12.636-19.975,12.636c-5.312,3.36-10.624,6.721-15.936,10.081
		c-3.837,2.427-7.674,4.855-11.511,7.282c-2.792,1.766-7.209,3.661-8.855,6.603c-0.764,1.366-1.089,3.015-0.967,4.598
		c0.462,6.014,6.757,11.979,10.264,16.668c2.435,3.257,4.87,6.514,7.306,9.771c0.263,0.352,0.813,0.049,0.658-0.361l-8.697-22.977
		l14.981,19.019c0.234,0.297,0.696,0.004,0.528-0.334l-10.66-21.468c-0.174-0.351-0.055-0.777,0.276-0.986l0,0
		c0.331-0.21,0.767-0.135,1.01,0.173l14.831,18.829c0.234,0.297,0.696,0.004,0.528-0.334l-10.66-21.468
		c-0.174-0.351-0.055-0.777,0.276-0.987l0,0c0.331-0.209,0.767-0.135,1.01,0.173l14.831,18.829c0.234,0.297,0.696,0.004,0.528-0.334
		l-10.66-21.468c-0.174-0.351-0.055-0.777,0.276-0.986l0,0c0.331-0.21,0.767-0.135,1.01,0.173l14.831,18.829
		c0.234,0.297,0.696,0.004,0.528-0.334l-10.66-21.468c-0.174-0.351-0.055-0.777,0.276-0.986l0,0c0.331-0.21,0.767-0.135,1.01,0.173
		l14.831,18.829c0.234,0.297,0.696,0.004,0.528-0.334l-10.66-21.468c-0.174-0.351-0.055-0.777,0.276-0.987l0,0
		c0.331-0.21,0.767-0.135,1.01,0.173l14.831,18.829c0.234,0.297,0.696,0.004,0.528-0.334l-10.66-21.468
		c-0.174-0.351-0.055-0.777,0.276-0.986l0,0c0.331-0.21,0.767-0.135,1.01,0.173l14.831,18.829c0.234,0.297,0.696,0.004,0.528-0.334
		l-10.66-21.468c-0.174-0.351-0.055-0.777,0.276-0.987l0,0c0.331-0.21,0.767-0.135,1.01,0.173l14.831,18.829
		c0.234,0.297,0.696,0.004,0.528-0.334l-10.66-21.468c-0.174-0.351-0.055-0.777,0.276-0.987l0,0c0.331-0.209,0.767-0.135,1.01,0.173
		l14.831,18.829c0.234,0.297,0.696,0.004,0.528-0.334l-10.66-21.468c-0.174-0.351-0.055-0.777,0.276-0.987l0,0
		c0.331-0.21,0.767-0.135,1.01,0.173l14.831,18.829c0.234,0.297,0.696,0.004,0.528-0.334l-10.66-21.468
		c-0.174-0.351-0.055-0.777,0.276-0.987l0,0c0.331-0.209,0.767-0.135,1.01,0.173l14.831,18.829c0.234,0.297,0.696,0.004,0.528-0.334
		l-10.66-21.468c-0.174-0.351-0.055-0.777,0.276-0.986l0,0c0.331-0.21,0.767-0.135,1.01,0.173l14.831,18.829
		c0.234,0.297,0.696,0.004,0.528-0.334l-10.66-21.468c-0.174-0.351-0.055-0.777,0.276-0.987l0,0c0.331-0.21,0.767-0.135,1.01,0.173
		l14.831,18.829c0.234,0.297,0.696,0.004,0.528-0.334l-10.66-21.468c-0.174-0.351-0.055-0.777,0.276-0.987l0,0
		c0.331-0.209,0.767-0.135,1.01,0.173l14.831,18.829c0.234,0.297,0.696,0.004,0.528-0.334l-10.66-21.468
		c-0.174-0.351-0.055-0.777,0.276-0.986l0,0c0.331-0.21,0.767-0.135,1.01,0.173l14.831,18.829c0.234,0.297,0.696,0.004,0.528-0.334
		l-10.218-20.578l16.167,16.798c0.305,0.316,0.813-0.052,0.608-0.44c-2.281-4.317-4.561-8.633-6.842-12.95
		C183.435,73.335,180.926,65.864,175.576,63.518z"/>
	<path style="fill:none;stroke:#263238;stroke-linecap:round;stroke-linejoin:round;stroke-miterlimit:10;" d="M51.64,209.995
		c-0.032,0.03-0.063,0.061-0.094,0.092c-3.604,3.611-1.027,10.654-0.294,14.927c1.173,6.832,2.346,13.663,3.519,20.495
		c0.254,1.477,0.507,2.953,0.761,4.43c0,0,3.463,20.17,3.463,20.17c0.921,5.364,1.842,10.727,2.763,16.091
		c0.665,3.874,1.331,7.749,1.996,11.623c0.484,2.819,0.531,6.98,2.336,9.274c0.838,1.065,2.048,1.872,3.355,2.301
		c4.962,1.63,11.823-1.421,16.737-2.665c3.413-0.864,6.826-1.729,10.24-2.593c0.369-0.093,0.31-0.634-0.07-0.646l-21.26-0.684
		l20.184-5.656c0.315-0.088,0.235-0.555-0.092-0.533l-20.706,1.387c-0.339,0.023-0.64-0.214-0.697-0.549l0,0
		c-0.057-0.334,0.147-0.658,0.474-0.75l19.983-5.599c0.315-0.088,0.235-0.555-0.091-0.533l-20.706,1.387
		c-0.339,0.023-0.639-0.214-0.697-0.549l0,0c-0.057-0.334,0.147-0.658,0.474-0.75l19.983-5.599c0.315-0.088,0.235-0.555-0.092-0.533
		l-20.706,1.387c-0.339,0.023-0.64-0.214-0.697-0.549l0,0c-0.057-0.335,0.147-0.658,0.474-0.75l19.983-5.599
		c0.315-0.088,0.235-0.555-0.092-0.533l-20.706,1.387c-0.339,0.023-0.64-0.214-0.697-0.549l0,0c-0.058-0.334,0.147-0.658,0.474-0.75
		l19.983-5.599c0.315-0.088,0.235-0.555-0.091-0.533l-20.706,1.387c-0.339,0.023-0.639-0.214-0.697-0.549l0,0
		c-0.057-0.334,0.147-0.658,0.474-0.75l19.983-5.599c0.315-0.088,0.235-0.555-0.092-0.533l-20.706,1.387
		c-0.339,0.023-0.64-0.214-0.697-0.549l0,0c-0.057-0.334,0.147-0.658,0.474-0.75l19.983-5.599c0.315-0.088,0.235-0.555-0.091-0.533
		l-20.706,1.387c-0.339,0.023-0.64-0.214-0.697-0.549l0,0c-0.057-0.334,0.147-0.658,0.474-0.75l19.983-5.599
		c0.315-0.088,0.235-0.555-0.091-0.533l-20.706,1.387c-0.339,0.023-0.64-0.214-0.697-0.549l0,0c-0.057-0.334,0.147-0.658,0.474-0.75
		l19.983-5.599c0.315-0.088,0.235-0.555-0.092-0.533l-20.706,1.387c-0.339,0.023-0.639-0.214-0.697-0.549h0
		c-0.057-0.334,0.147-0.658,0.474-0.75l19.983-5.599c0.315-0.088,0.235-0.555-0.091-0.533l-20.706,1.387
		c-0.339,0.023-0.639-0.214-0.697-0.549l0,0c-0.057-0.334,0.147-0.658,0.474-0.75l19.983-5.599c0.315-0.088,0.235-0.555-0.091-0.533
		l-20.706,1.387c-0.339,0.023-0.639-0.214-0.697-0.549l0,0c-0.057-0.334,0.147-0.658,0.474-0.75l19.983-5.599
		c0.315-0.088,0.235-0.555-0.092-0.533l-20.706,1.387c-0.339,0.023-0.639-0.214-0.697-0.549l0,0
		c-0.057-0.334,0.147-0.658,0.474-0.75l19.983-5.599c0.315-0.088,0.235-0.555-0.091-0.533l-20.706,1.387
		c-0.339,0.023-0.639-0.214-0.697-0.549l0,0c-0.057-0.335,0.147-0.658,0.474-0.75l19.983-5.599c0.315-0.088,0.235-0.555-0.091-0.533
		l-20.706,1.387c-0.339,0.023-0.639-0.214-0.697-0.549l0,0c-0.057-0.334,0.147-0.658,0.474-0.75l19.983-5.599
		c0.315-0.088,0.235-0.555-0.091-0.533l-19.848,1.33l18.803-7.342c0.354-0.138,0.229-0.668-0.149-0.633
		c-4.209,0.389-8.418,0.777-12.627,1.165C62.101,206.974,55.294,206.497,51.64,209.995z"/>
	<path style="fill:none;stroke:#263238;stroke-linecap:round;stroke-linejoin:round;stroke-miterlimit:10;" d="M433.99,340.625
		c-0.046-0.02-0.093-0.04-0.139-0.059c-5.449-2.243-11.818,3.628-16.049,6.305c-6.766,4.28-13.532,8.56-20.297,12.84
		c-1.462,0.925-2.925,1.85-4.387,2.775l-19.975,12.636c-5.312,3.36-10.624,6.721-15.936,10.081
		c-3.837,2.427-7.674,4.855-11.511,7.282c-2.792,1.766-7.209,3.661-8.855,6.603c-0.764,1.366-1.089,3.015-0.967,4.598
		c0.462,6.014,6.757,11.979,10.264,16.668c2.435,3.257,4.871,6.514,7.306,9.771c0.263,0.352,0.814,0.049,0.658-0.361l-8.697-22.977
		l14.981,19.019c0.234,0.297,0.696,0.004,0.528-0.334l-10.66-21.468c-0.174-0.351-0.055-0.777,0.276-0.987l0,0
		c0.331-0.21,0.767-0.135,1.01,0.173l14.831,18.829c0.234,0.297,0.696,0.004,0.528-0.334l-10.66-21.468
		c-0.174-0.351-0.055-0.777,0.276-0.987l0,0c0.331-0.209,0.767-0.135,1.01,0.173l14.831,18.829c0.234,0.297,0.696,0.004,0.528-0.334
		l-10.66-21.468c-0.174-0.351-0.055-0.777,0.276-0.986l0,0c0.331-0.21,0.767-0.135,1.01,0.173l14.831,18.829
		c0.234,0.297,0.696,0.004,0.528-0.334l-10.66-21.468c-0.174-0.351-0.055-0.777,0.276-0.987l0,0c0.331-0.21,0.767-0.135,1.01,0.173
		l14.831,18.829c0.234,0.297,0.696,0.004,0.528-0.334l-10.66-21.468c-0.174-0.351-0.055-0.777,0.276-0.986l0,0
		c0.331-0.21,0.767-0.135,1.01,0.173l14.831,18.829c0.234,0.297,0.696,0.004,0.528-0.334l-10.66-21.468
		c-0.174-0.351-0.055-0.777,0.276-0.986l0,0c0.331-0.21,0.767-0.135,1.01,0.173l14.831,18.829c0.234,0.297,0.696,0.004,0.528-0.334
		l-10.66-21.468c-0.174-0.351-0.055-0.777,0.276-0.987l0,0c0.331-0.21,0.767-0.135,1.01,0.173l14.831,18.829
		c0.234,0.297,0.696,0.004,0.528-0.334l-10.66-21.468c-0.174-0.351-0.055-0.777,0.276-0.986l0,0c0.331-0.21,0.767-0.135,1.01,0.173
		l14.831,18.829c0.234,0.297,0.696,0.004,0.528-0.334l-10.66-21.468c-0.174-0.351-0.055-0.777,0.276-0.987v0
		c0.331-0.21,0.767-0.135,1.01,0.173l14.831,18.829c0.234,0.297,0.696,0.004,0.528-0.334l-10.66-21.468
		c-0.174-0.351-0.055-0.777,0.276-0.987l0,0c0.331-0.21,0.767-0.135,1.01,0.173l14.831,18.829c0.234,0.297,0.696,0.004,0.528-0.334
		l-10.66-21.468c-0.174-0.351-0.055-0.777,0.276-0.987l0,0c0.331-0.21,0.767-0.135,1.01,0.173l14.831,18.829
		c0.234,0.297,0.696,0.004,0.528-0.334l-10.66-21.468c-0.174-0.351-0.055-0.777,0.276-0.987l0,0c0.331-0.21,0.767-0.135,1.01,0.173
		l14.831,18.829c0.234,0.297,0.696,0.004,0.528-0.334l-10.66-21.468c-0.174-0.351-0.055-0.777,0.276-0.987l0,0
		c0.331-0.21,0.767-0.135,1.01,0.173l14.831,18.829c0.234,0.297,0.696,0.004,0.528-0.334l-10.66-21.468
		c-0.174-0.351-0.055-0.777,0.276-0.987l0,0c0.331-0.209,0.767-0.135,1.01,0.173l14.831,18.829c0.234,0.297,0.696,0.004,0.528-0.334
		l-10.219-20.578l16.167,16.798c0.304,0.316,0.813-0.052,0.608-0.44c-2.28-4.317-4.561-8.633-6.842-12.95
		C441.85,350.442,439.341,342.971,433.99,340.625z"/>
	<g>
		<path style="fill:none;stroke:#263238;stroke-linecap:round;stroke-linejoin:round;stroke-miterlimit:10;" d="M66.468,366.928
			l-5.411,29.113c-0.942,5.069,2.586,9.976,7.879,10.96l54.52,10.133c5.294,0.984,10.349-2.328,11.291-7.397l1.169-6.291
			c2.98-0.946,9.835-2.687,17.262-1.587c9.924,1.469,20.066,5.982,30.032,9.337c5.225,1.759,11.744,2.932,16.764,3.65
			c4.385,0.628,8.451-2.16,9.226-6.331c0.775-4.171-2.017-8.233-6.335-9.223c-4.943-1.133-11.449-2.381-16.956-2.617
			c-10.505-0.45-21.592,0.118-31.381-2.077c-7.326-1.643-13.097-5.73-15.539-7.683l1.169-6.291c0.942-5.069-2.586-9.976-7.879-10.96
			l-54.52-10.133C72.465,358.547,67.41,361.858,66.468,366.928z"/>
		<path style="fill:none;stroke:#263238;stroke-linecap:round;stroke-linejoin:round;stroke-miterlimit:10;" d="M134.22,381.475
			l-4.708,25.333c-0.637,3.43-3.934,5.693-7.364,5.056l-50.13-9.317c-3.43-0.637-5.693-3.934-5.056-7.364l4.708-25.333
			c0.637-3.43,3.934-5.693,7.364-5.056l50.13,9.317C132.593,374.748,134.857,378.045,134.22,381.475z"/>
		<g>
			<g>
				<path style="fill:none;stroke:#263238;stroke-linecap:round;stroke-linejoin:round;stroke-miterlimit:10;" d="M72.588,395.929
					c-1.002-0.186-1.966,0.475-2.152,1.478c-0.186,1.002,0.475,1.966,1.478,2.152c1.003,0.186,1.966-0.475,2.152-1.478
					C74.252,397.079,73.59,396.115,72.588,395.929z"/>
				<path style="fill:none;stroke:#263238;stroke-linecap:round;stroke-linejoin:round;stroke-miterlimit:10;" d="M73.667,390.121
					c-1.002-0.186-1.966,0.475-2.152,1.478s0.475,1.966,1.478,2.152s1.966-0.475,2.152-1.478
					C75.331,391.271,74.67,390.307,73.667,390.121z"/>
				<path style="fill:none;stroke:#263238;stroke-linecap:round;stroke-linejoin:round;stroke-miterlimit:10;" d="M74.747,384.313
					c-1.002-0.186-1.966,0.475-2.152,1.478c-0.186,1.002,0.475,1.966,1.478,2.152c1.002,0.186,1.966-0.475,2.152-1.478
					C76.411,385.462,75.749,384.499,74.747,384.313z"/>
				<path style="fill:none;stroke:#263238;stroke-linecap:round;stroke-linejoin:round;stroke-miterlimit:10;" d="M75.826,378.504
					c-1.002-0.186-1.966,0.475-2.152,1.478c-0.186,1.003,0.475,1.966,1.478,2.152c1.002,0.186,1.966-0.475,2.152-1.478
					C77.49,379.654,76.828,378.691,75.826,378.504z"/>
				<path style="fill:none;stroke:#263238;stroke-linecap:round;stroke-linejoin:round;stroke-miterlimit:10;" d="M76.906,372.696
					c-1.002-0.186-1.966,0.475-2.152,1.478c-0.186,1.002,0.475,1.966,1.478,2.152c1.002,0.186,1.966-0.475,2.152-1.478
					C78.57,373.846,77.908,372.883,76.906,372.696z"/>
				
					<ellipse transform="matrix(0.9957 -0.0922 0.0922 0.9957 -33.6623 8.7292)" style="fill:none;stroke:#263238;stroke-linecap:round;stroke-linejoin:round;stroke-miterlimit:10;" cx="77.648" cy="368.703" rx="1.846" ry="1.846"/>
			</g>
			<g>
				<path style="fill:none;stroke:#263238;stroke-linecap:round;stroke-linejoin:round;stroke-miterlimit:10;" d="M79.122,397.143
					c-1.002-0.186-1.966,0.475-2.152,1.478c-0.186,1.002,0.475,1.966,1.478,2.152c1.002,0.186,1.966-0.475,2.152-1.478
					C80.786,398.293,80.124,397.329,79.122,397.143z"/>
				<path style="fill:none;stroke:#263238;stroke-linecap:round;stroke-linejoin:round;stroke-miterlimit:10;" d="M80.201,391.335
					c-1.002-0.186-1.966,0.475-2.152,1.478c-0.186,1.002,0.475,1.966,1.478,2.152c1.002,0.186,1.966-0.475,2.152-1.478
					C81.865,392.485,81.204,391.521,80.201,391.335z"/>
				<path style="fill:none;stroke:#263238;stroke-linecap:round;stroke-linejoin:round;stroke-miterlimit:10;" d="M81.281,385.527
					c-1.003-0.186-1.966,0.475-2.152,1.478c-0.186,1.002,0.475,1.966,1.478,2.152c1.002,0.186,1.966-0.475,2.152-1.478
					C82.945,386.677,82.283,385.713,81.281,385.527z"/>
				<path style="fill:none;stroke:#263238;stroke-linecap:round;stroke-linejoin:round;stroke-miterlimit:10;" d="M82.36,379.719
					c-1.002-0.186-1.966,0.475-2.152,1.478c-0.186,1.002,0.475,1.966,1.478,2.152c1.003,0.186,1.966-0.475,2.152-1.478
					C84.024,380.869,83.363,379.905,82.36,379.719z"/>
				
					<ellipse transform="matrix(0.9863 -0.165 0.165 0.9863 -60.8387 18.8549)" style="fill:none;stroke:#263238;stroke-linecap:round;stroke-linejoin:round;stroke-miterlimit:10;" cx="83.102" cy="375.726" rx="1.846" ry="1.846"/>
				<path style="fill:none;stroke:#263238;stroke-linecap:round;stroke-linejoin:round;stroke-miterlimit:10;" d="M84.519,368.103
					c-1.002-0.186-1.966,0.475-2.152,1.478c-0.186,1.003,0.475,1.966,1.478,2.152c1.002,0.186,1.966-0.475,2.152-1.478
					C86.183,369.253,85.521,368.289,84.519,368.103z"/>
			</g>
			<g>
				<path style="fill:none;stroke:#263238;stroke-linecap:round;stroke-linejoin:round;stroke-miterlimit:10;" d="M85.656,398.357
					c-1.002-0.186-1.966,0.475-2.152,1.478c-0.186,1.002,0.475,1.966,1.478,2.152c1.002,0.186,1.966-0.475,2.152-1.478
					C87.32,399.507,86.658,398.544,85.656,398.357z"/>
				<path style="fill:none;stroke:#263238;stroke-linecap:round;stroke-linejoin:round;stroke-miterlimit:10;" d="M86.735,392.549
					c-1.002-0.186-1.966,0.475-2.152,1.478c-0.186,1.003,0.475,1.966,1.478,2.152c1.002,0.186,1.966-0.475,2.152-1.478
					C88.399,393.699,87.738,392.736,86.735,392.549z"/>
				<path style="fill:none;stroke:#263238;stroke-linecap:round;stroke-linejoin:round;stroke-miterlimit:10;" d="M87.815,386.741
					c-1.002-0.186-1.966,0.475-2.152,1.478c-0.186,1.002,0.475,1.966,1.478,2.152c1.002,0.186,1.966-0.475,2.152-1.478
					C89.479,387.891,88.817,386.928,87.815,386.741z"/>
				
					<ellipse transform="matrix(0.9957 -0.0922 0.0922 0.9957 -34.9108 9.7948)" style="fill:none;stroke:#263238;stroke-linecap:round;stroke-linejoin:round;stroke-miterlimit:10;" cx="88.557" cy="382.748" rx="1.846" ry="1.846"/>
				<path style="fill:none;stroke:#263238;stroke-linecap:round;stroke-linejoin:round;stroke-miterlimit:10;" d="M89.974,375.125
					c-1.002-0.186-1.966,0.475-2.152,1.478c-0.186,1.002,0.475,1.966,1.478,2.152c1.002,0.186,1.966-0.475,2.152-1.478
					C91.638,376.275,90.976,375.311,89.974,375.125z"/>
				<path style="fill:none;stroke:#263238;stroke-linecap:round;stroke-linejoin:round;stroke-miterlimit:10;" d="M91.053,369.317
					c-1.003-0.186-1.966,0.475-2.152,1.478c-0.186,1.002,0.475,1.966,1.478,2.152c1.002,0.186,1.966-0.475,2.152-1.478
					C92.717,370.467,92.056,369.503,91.053,369.317z"/>
			</g>
			<g>
				
					<ellipse transform="matrix(0.9957 -0.0922 0.0922 0.9957 -36.6151 10.178)" style="fill:none;stroke:#263238;stroke-linecap:round;stroke-linejoin:round;stroke-miterlimit:10;" cx="91.853" cy="401.387" rx="1.846" ry="1.846"/>
				<path style="fill:none;stroke:#263238;stroke-linecap:round;stroke-linejoin:round;stroke-miterlimit:10;" d="M93.27,393.764
					c-1.002-0.186-1.966,0.475-2.152,1.478c-0.186,1.002,0.475,1.966,1.478,2.152c1.002,0.186,1.966-0.475,2.152-1.478
					C94.934,394.914,94.272,393.95,93.27,393.764z"/>
				<path style="fill:none;stroke:#263238;stroke-linecap:round;stroke-linejoin:round;stroke-miterlimit:10;" d="M94.349,387.956
					c-1.002-0.186-1.966,0.475-2.152,1.478c-0.186,1.002,0.475,1.966,1.478,2.152c1.002,0.186,1.966-0.475,2.152-1.478
					S95.351,388.142,94.349,387.956z"/>
				<path style="fill:none;stroke:#263238;stroke-linecap:round;stroke-linejoin:round;stroke-miterlimit:10;" d="M95.428,382.147
					c-1.002-0.186-1.966,0.475-2.152,1.478c-0.186,1.002,0.475,1.966,1.478,2.152c1.002,0.186,1.966-0.475,2.152-1.478
					C97.092,383.297,96.431,382.334,95.428,382.147z"/>
				<path style="fill:none;stroke:#263238;stroke-linecap:round;stroke-linejoin:round;stroke-miterlimit:10;" d="M96.508,376.34
					c-1.002-0.186-1.966,0.475-2.152,1.478s0.475,1.966,1.478,2.152c1.002,0.186,1.966-0.475,2.152-1.478
					C98.172,377.489,97.51,376.526,96.508,376.34z"/>
				<path style="fill:none;stroke:#263238;stroke-linecap:round;stroke-linejoin:round;stroke-miterlimit:10;" d="M97.587,370.531
					c-1.003-0.186-1.966,0.475-2.152,1.478c-0.186,1.002,0.475,1.966,1.478,2.152c1.002,0.186,1.966-0.475,2.152-1.478
					C99.251,371.681,98.59,370.718,97.587,370.531z"/>
			</g>
			<g>
				<path style="fill:none;stroke:#263238;stroke-linecap:round;stroke-linejoin:round;stroke-miterlimit:10;" d="M98.724,400.786
					c-1.002-0.186-1.966,0.475-2.152,1.478c-0.186,1.002,0.475,1.966,1.478,2.152s1.966-0.475,2.152-1.478
					C100.388,401.936,99.727,400.973,98.724,400.786z"/>
				<path style="fill:none;stroke:#263238;stroke-linecap:round;stroke-linejoin:round;stroke-miterlimit:10;" d="M99.804,394.978
					c-1.002-0.186-1.966,0.475-2.152,1.478c-0.186,1.002,0.475,1.966,1.478,2.152c1.003,0.186,1.966-0.475,2.152-1.478
					C101.468,396.128,100.806,395.164,99.804,394.978z"/>
				<path style="fill:none;stroke:#263238;stroke-linecap:round;stroke-linejoin:round;stroke-miterlimit:10;" d="M100.883,389.17
					c-1.002-0.186-1.966,0.475-2.152,1.478c-0.186,1.002,0.475,1.966,1.478,2.152c1.002,0.186,1.966-0.475,2.152-1.478
					C102.547,390.32,101.885,389.356,100.883,389.17z"/>
				<path style="fill:none;stroke:#263238;stroke-linecap:round;stroke-linejoin:round;stroke-miterlimit:10;" d="M101.963,383.362
					c-1.002-0.186-1.966,0.475-2.152,1.478c-0.186,1.002,0.475,1.966,1.478,2.152c1.002,0.186,1.966-0.475,2.152-1.478
					C103.627,384.512,102.965,383.548,101.963,383.362z"/>
				<path style="fill:none;stroke:#263238;stroke-linecap:round;stroke-linejoin:round;stroke-miterlimit:10;" d="M103.042,377.554
					c-1.002-0.186-1.966,0.475-2.152,1.478c-0.186,1.002,0.475,1.966,1.478,2.152c1.002,0.186,1.966-0.475,2.152-1.478
					C104.706,378.704,104.044,377.74,103.042,377.554z"/>
				<path style="fill:none;stroke:#263238;stroke-linecap:round;stroke-linejoin:round;stroke-miterlimit:10;" d="M104.121,371.746
					c-1.002-0.186-1.966,0.475-2.152,1.478c-0.186,1.003,0.475,1.966,1.478,2.152c1.002,0.186,1.966-0.475,2.152-1.478
					S105.124,371.932,104.121,371.746z"/>
			</g>
			<g>
				<path style="fill:none;stroke:#263238;stroke-linecap:round;stroke-linejoin:round;stroke-miterlimit:10;" d="M105.258,402
					c-1.003-0.186-1.966,0.475-2.152,1.478c-0.186,1.002,0.475,1.966,1.478,2.152c1.002,0.186,1.966-0.475,2.152-1.478
					C106.922,403.151,106.261,402.187,105.258,402z"/>
				<path style="fill:none;stroke:#263238;stroke-linecap:round;stroke-linejoin:round;stroke-miterlimit:10;" d="M106.338,396.192
					c-1.002-0.186-1.966,0.475-2.152,1.478c-0.186,1.003,0.475,1.966,1.478,2.152c1.002,0.186,1.966-0.475,2.152-1.478
					C108.002,397.342,107.34,396.379,106.338,396.192z"/>
				<path style="fill:none;stroke:#263238;stroke-linecap:round;stroke-linejoin:round;stroke-miterlimit:10;" d="M107.417,390.384
					c-1.002-0.186-1.966,0.475-2.152,1.478c-0.186,1.002,0.475,1.966,1.478,2.152s1.966-0.475,2.152-1.478
					C109.081,391.534,108.42,390.571,107.417,390.384z"/>
				
					<ellipse transform="matrix(0.9957 -0.0922 0.0922 0.9957 -35.1631 11.6176)" style="fill:none;stroke:#263238;stroke-linecap:round;stroke-linejoin:round;stroke-miterlimit:10;" cx="108.159" cy="386.391" rx="1.846" ry="1.846"/>
				<path style="fill:none;stroke:#263238;stroke-linecap:round;stroke-linejoin:round;stroke-miterlimit:10;" d="M109.576,378.768
					c-1.002-0.186-1.966,0.475-2.152,1.478c-0.186,1.002,0.475,1.966,1.478,2.152c1.002,0.186,1.966-0.475,2.152-1.478
					C111.24,379.918,110.578,378.954,109.576,378.768z"/>
				
					<ellipse transform="matrix(0.9863 -0.165 0.165 0.9863 -60.3091 23.3312)" style="fill:none;stroke:#263238;stroke-linecap:round;stroke-linejoin:round;stroke-miterlimit:10;" cx="110.318" cy="374.775" rx="1.846" ry="1.846"/>
			</g>
			<g>
				<path style="fill:none;stroke:#263238;stroke-linecap:round;stroke-linejoin:round;stroke-miterlimit:10;" d="M111.792,403.215
					c-1.002-0.186-1.966,0.475-2.152,1.478s0.475,1.966,1.478,2.152c1.002,0.186,1.966-0.475,2.152-1.478
					C113.456,404.365,112.795,403.401,111.792,403.215z"/>
				<path style="fill:none;stroke:#263238;stroke-linecap:round;stroke-linejoin:round;stroke-miterlimit:10;" d="M112.872,397.407
					c-1.002-0.186-1.966,0.475-2.152,1.478c-0.186,1.002,0.475,1.966,1.478,2.152c1.002,0.186,1.966-0.475,2.152-1.478
					C114.536,398.557,113.874,397.593,112.872,397.407z"/>
				
					<ellipse transform="matrix(0.9863 -0.165 0.165 0.9863 -63.3385 24.1302)" style="fill:none;stroke:#263238;stroke-linecap:round;stroke-linejoin:round;stroke-miterlimit:10;" cx="113.614" cy="393.414" rx="1.846" ry="1.846"/>
				<path style="fill:none;stroke:#263238;stroke-linecap:round;stroke-linejoin:round;stroke-miterlimit:10;" d="M115.031,385.791
					c-1.003-0.186-1.966,0.475-2.152,1.478c-0.186,1.003,0.475,1.966,1.478,2.152c1.002,0.186,1.966-0.475,2.152-1.478
					C116.695,386.941,116.033,385.977,115.031,385.791z"/>
				<path style="fill:none;stroke:#263238;stroke-linecap:round;stroke-linejoin:round;stroke-miterlimit:10;" d="M116.11,379.983
					c-1.002-0.186-1.966,0.475-2.152,1.478c-0.186,1.002,0.475,1.966,1.478,2.152c1.002,0.186,1.966-0.475,2.152-1.478
					C117.774,381.133,117.113,380.169,116.11,379.983z"/>
				<path style="fill:none;stroke:#263238;stroke-linecap:round;stroke-linejoin:round;stroke-miterlimit:10;" d="M117.189,374.174
					c-1.002-0.186-1.966,0.475-2.152,1.478c-0.186,1.002,0.475,1.966,1.478,2.152s1.966-0.475,2.152-1.478
					C118.854,375.324,118.192,374.361,117.189,374.174z"/>
			</g>
			<g>
				<path style="fill:none;stroke:#263238;stroke-linecap:round;stroke-linejoin:round;stroke-miterlimit:10;" d="M118.326,404.429
					c-1.002-0.186-1.966,0.475-2.152,1.478c-0.186,1.002,0.475,1.966,1.478,2.152c1.002,0.186,1.966-0.475,2.152-1.478
					S119.329,404.616,118.326,404.429z"/>
				
					<ellipse transform="matrix(0.9957 -0.0922 0.0922 0.9957 -36.4116 12.6832)" style="fill:none;stroke:#263238;stroke-linecap:round;stroke-linejoin:round;stroke-miterlimit:10;" cx="119.069" cy="400.436" rx="1.846" ry="1.846"/>
				<path style="fill:none;stroke:#263238;stroke-linecap:round;stroke-linejoin:round;stroke-miterlimit:10;" d="M120.485,392.813
					c-1.002-0.186-1.966,0.475-2.152,1.478s0.475,1.966,1.478,2.152c1.002,0.186,1.966-0.475,2.152-1.478
					C122.149,393.963,121.488,392.999,120.485,392.813z"/>
				<path style="fill:none;stroke:#263238;stroke-linecap:round;stroke-linejoin:round;stroke-miterlimit:10;" d="M121.565,387.005
					c-1.002-0.186-1.966,0.475-2.152,1.478s0.475,1.966,1.478,2.152c1.002,0.186,1.966-0.475,2.152-1.478
					C123.229,388.155,122.567,387.191,121.565,387.005z"/>
				<path style="fill:none;stroke:#263238;stroke-linecap:round;stroke-linejoin:round;stroke-miterlimit:10;" d="M122.644,381.197
					c-1.002-0.186-1.966,0.475-2.152,1.478c-0.186,1.002,0.475,1.966,1.478,2.152c1.002,0.186,1.966-0.475,2.152-1.478
					C124.308,382.347,123.647,381.383,122.644,381.197z"/>
				<path style="fill:none;stroke:#263238;stroke-linecap:round;stroke-linejoin:round;stroke-miterlimit:10;" d="M123.724,375.389
					c-1.002-0.186-1.966,0.475-2.152,1.478c-0.186,1.003,0.475,1.966,1.478,2.152c1.002,0.186,1.966-0.475,2.152-1.478
					S124.726,375.575,123.724,375.389z"/>
			</g>
			<g>
				
					<ellipse transform="matrix(0.9863 -0.165 0.165 0.9863 -65.5058 26.1221)" style="fill:none;stroke:#263238;stroke-linecap:round;stroke-linejoin:round;stroke-miterlimit:10;" cx="124.523" cy="407.459" rx="1.846" ry="1.846"/>
				<path style="fill:none;stroke:#263238;stroke-linecap:round;stroke-linejoin:round;stroke-miterlimit:10;" d="M125.94,399.836
					c-1.002-0.186-1.966,0.475-2.152,1.478c-0.186,1.003,0.475,1.966,1.478,2.152c1.002,0.186,1.966-0.475,2.152-1.478
					C127.604,400.986,126.942,400.022,125.94,399.836z"/>
				<path style="fill:none;stroke:#263238;stroke-linecap:round;stroke-linejoin:round;stroke-miterlimit:10;" d="M127.019,394.027
					c-1.002-0.186-1.966,0.475-2.152,1.478c-0.186,1.002,0.475,1.966,1.478,2.152c1.002,0.186,1.966-0.475,2.152-1.478
					C128.683,395.177,128.022,394.214,127.019,394.027z"/>
				<path style="fill:none;stroke:#263238;stroke-linecap:round;stroke-linejoin:round;stroke-miterlimit:10;" d="M128.099,388.219
					c-1.002-0.186-1.966,0.475-2.152,1.478c-0.186,1.002,0.475,1.966,1.478,2.152s1.966-0.475,2.152-1.478
					C129.763,389.369,129.101,388.406,128.099,388.219z"/>
				<path style="fill:none;stroke:#263238;stroke-linecap:round;stroke-linejoin:round;stroke-miterlimit:10;" d="M129.178,382.411
					c-1.002-0.186-1.966,0.475-2.152,1.478c-0.186,1.002,0.475,1.966,1.478,2.152c1.002,0.186,1.966-0.475,2.152-1.478
					C130.842,383.561,130.181,382.598,129.178,382.411z"/>
				
					<ellipse transform="matrix(0.9863 -0.165 0.165 0.9863 -60.6415 26.6146)" style="fill:none;stroke:#263238;stroke-linecap:round;stroke-linejoin:round;stroke-miterlimit:10;" cx="129.92" cy="378.418" rx="1.846" ry="1.846"/>
			</g>
		</g>
	</g>
</g>
<g id="Character">
	<g>
		<path style="fill:none;stroke:#263238;stroke-linecap:round;stroke-linejoin:round;stroke-miterlimit:10;" d="M352.85,212.65
			c0,0,8.001,3.745,5.783,16.312c-2.218,12.567-3.696,14.046,2.957,20.699c6.653,6.653,10.349,7.762,8.871,18.481
			c-1.479,10.719-10.719,15.154-10.349,20.699c0.37,5.544,8.871,4.435,11.828,11.828c2.957,7.392,1.848,15.154,1.848,15.154"/>
		<path style="fill:#263238;stroke:#263238;stroke-linecap:round;stroke-linejoin:round;stroke-miterlimit:10;" d="M269.002,137.889
			c0,0-13.217-21.478-33.043-16.109s-17.761,17.348-21.478,23.956c-3.717,6.609-24.369-5.37-33.043,10.326
			c-8.674,15.695-2.891,23.13-4.956,26.848c-2.065,3.717-20.239-1.239-22.717,14.456c-2.478,15.696,2.478,14.87-1.239,19
			c-3.717,4.13-19-1.239-22.717,12.804c-3.717,14.043,13.63,19.413,9.087,28.913c-4.543,9.5-15.695,3.304-20.652,15.283
			c-4.956,11.978,0.826,13.217,3.717,23.13c2.891,9.913,2.065,14.043-7.435,22.304c-9.5,8.261-9.5,22.717-4.543,28.087
			c4.956,5.369,12.804,4.13,14.456,11.152s-6.609,14.456-4.956,10.326s-2.891-7.022-5.37-1.652
			c-2.478,5.37,0.826,13.217,11.565,14.456s17.761-2.478,22.717-8.261H366.48c0,0,11.152-35.522,9.5-50.391
			s-14.043-21.478-19.826-28.913c-5.783-7.435,18.174-19.413,13.217-35.108c-4.956-15.696-14.043-9.913-16.522-19.413
			c-2.478-9.5,5.783-19,0-26.435c-5.783-7.435-16.522-3.304-17.348-10.739c-0.826-7.435,14.456-16.109,3.717-25.196
			c-10.739-9.087-16.522-3.717-18.587-5.369c-2.065-1.652,0.826-5.783-5.783-10.739c-6.609-4.956-8.261-0.413-11.565-4.956
			c-3.304-4.543,0.413-14.456-11.978-20.239C278.915,129.629,269.002,137.889,269.002,137.889z"/>
		<path style="fill:none;stroke:#263238;stroke-linecap:round;stroke-linejoin:round;stroke-miterlimit:10;" d="M214.481,145.737
			c0,0-7.761,3.387-14.783,1.17c-7.023-2.218-17.002-0.37-23.286,9.24c-6.284,9.61,0.37,20.699-3.696,25.873
			c-4.066,5.175-18.481,1.848-21.438,9.61c-2.957,7.762,0.739,21.068-1.478,24.025c-2.218,2.957-14.046-2.218-20.699,7.762
			c-6.653,9.98-2.587,14.785-1.479,19.59"/>
		<path style="fill:none;stroke:#263238;stroke-linecap:round;stroke-linejoin:round;stroke-miterlimit:10;" d="M118.751,275.904
			c0,0-6.653,8.132-4.436,15.154c2.218,7.023,11.249,3.674,7.392,14.045c-3.857,10.372-17.002,21.068-17.372,29.57
			c-0.37,8.501,6.284,8.501,14.415,20.699c8.132,12.197,0.73,12.995,0.73,12.995"/>
		<g>
			<path style="fill:#92E3A9;stroke:#263238;stroke-linecap:round;stroke-linejoin:round;stroke-miterlimit:10;" d="
				M197.386,271.022c0,0-41.585,10.125-43.754,15.549c-2.17,5.424-11.21,93.656-11.21,93.656s-7.594,31.821-4.701,33.991
				c2.893,2.17,36.522,18.803,36.522,18.803h127.647l10.848-43.031c0,0,15.549-74.491,16.634-84.254
				c1.085-9.763,2.893-11.21-1.447-18.08C323.587,280.785,260.306,261.62,197.386,271.022z"/>
			<path style="fill:#92E3A9;stroke:#263238;stroke-linecap:round;stroke-linejoin:round;stroke-miterlimit:10;" d="
				M197.386,271.022c0,0-4.135,11.937-4.828,16.787c-0.693,4.85,1.039,41.225,1.039,41.225l24.25,1.386l-7.621,10.046
				c0,0,4.85,5.196,14.204,11.086c9.354,5.889,15.936,11.778,15.936,11.778s10.046-10.046,15.589-13.857
				c5.543-3.811,9.354-7.621,9.007-10.046c-0.346-2.425-2.425-7.275-2.425-7.275l26.328,1.039c0,0,7.275-16.975,4.157-42.264
				c-3.118-25.289-5.196-28.753-5.196-28.753l-51.964-9.354C235.862,252.82,207.411,257.353,197.386,271.022z"/>
			<path style="fill:#92E3A9;stroke:#263238;stroke-linecap:round;stroke-linejoin:round;stroke-miterlimit:10;" d="
				M215.577,426.478c0,0,42.144-5.319,70.377-17.185"/>
			<path style="fill:#92E3A9;stroke:#263238;stroke-linecap:round;stroke-linejoin:round;stroke-miterlimit:10;" d="M243.4,425.25
				c0,0,30.278-4.501,43.781-10.229"/>
		</g>
		<path style="fill:#FFFFFF;stroke:#263238;stroke-linecap:round;stroke-linejoin:round;stroke-miterlimit:10;" d="M209.681,261.982
			c0,0,9.402,55.326,19.165,74.129c9.763,18.803,11.571,23.866,11.571,23.866s25.674-42.67,32.906-67.259
			c7.232-24.589,4.843-39.257,4.843-39.257s21.262-11.233,0-10.079C256.904,244.536,209.681,261.982,209.681,261.982z"/>
		<path style="fill:none;stroke:#263238;stroke-linecap:round;stroke-linejoin:round;stroke-miterlimit:10;" d="M229.375,271.494
			c0,0,5.156,11.172,3.867,22.774"/>
		<g>
			<path style="fill:#FFFFFF;stroke:#263238;stroke-linecap:round;stroke-linejoin:round;stroke-miterlimit:10;" d="
				M207.156,195.316c0,0-4.003,27.605-0.143,45.362c3.86,17.757,14.73,33.681,29.399,31.751
				c14.669-1.93,27.047-10.192,42.157-25.386c9.62-9.673,12.733-26.209,13.505-42.035c0.772-15.827-1.153-10.077-4.241-21.657
				c-3.088-11.58-17.367-23.602-30.877-25.146C243.445,156.66,216.42,152.854,207.156,195.316z"/>
			<g>
				<path style="fill:none;stroke:#263238;stroke-width:0.5;stroke-miterlimit:10;" d="M257.389,222.579
					c0,0.418-0.339,0.757-0.757,0.757c-0.418,0-0.756-0.339-0.756-0.757c0-0.418,0.339-0.757,0.756-0.757
					C257.051,221.822,257.389,222.161,257.389,222.579z"/>
				<path style="fill:none;stroke:#263238;stroke-width:0.5;stroke-miterlimit:10;" d="M268.927,224.849
					c0,0.418-0.339,0.757-0.756,0.757c-0.418,0-0.757-0.339-0.757-0.757c0-0.418,0.339-0.757,0.757-0.757
					C268.588,224.092,268.927,224.431,268.927,224.849z"/>
				<path style="fill:none;stroke:#263238;stroke-width:0.5;stroke-miterlimit:10;" d="M262.496,228.253
					c0,0.418-0.339,0.757-0.757,0.757c-0.418,0-0.757-0.339-0.757-0.757c0-0.418,0.339-0.757,0.757-0.757
					C262.157,227.497,262.496,227.835,262.496,228.253z"/>
			</g>
			<g>
				<path style="fill:none;stroke:#263238;stroke-width:0.5;stroke-miterlimit:10;" d="M219.183,211.798
					c0,0.418-0.339,0.757-0.757,0.757c-0.418,0-0.757-0.339-0.757-0.757c0-0.418,0.339-0.757,0.757-0.757
					C218.844,211.042,219.183,211.38,219.183,211.798z"/>
				<path style="fill:none;stroke:#263238;stroke-width:0.5;stroke-miterlimit:10;" d="M230.721,214.068
					c0,0.418-0.339,0.757-0.757,0.757c-0.418,0-0.757-0.339-0.757-0.757c0-0.418,0.339-0.757,0.757-0.757
					C230.382,213.311,230.721,213.65,230.721,214.068z"/>
				<path style="fill:none;stroke:#263238;stroke-width:0.5;stroke-miterlimit:10;" d="M224.29,217.472
					c0,0.418-0.339,0.757-0.757,0.757c-0.418,0-0.757-0.339-0.757-0.757c0-0.418,0.339-0.757,0.757-0.757
					C223.951,216.716,224.29,217.054,224.29,217.472z"/>
			</g>
			<g>
				<path style="fill:none;stroke:#263238;stroke-linecap:round;stroke-linejoin:round;stroke-miterlimit:10;" d="M240.082,199.368
					c0,0,0.807,4.719-2.395,12.658c-1.546,3.833-4.371,6.153-4.371,6.153s-4.313-2.465-5.853,0.924c-1.54,3.389,0,10.166,9.55,9.858
					"/>
				<path style="fill:#FFFFFF;stroke:#263238;stroke-linecap:round;stroke-linejoin:round;stroke-miterlimit:10;" d="
					M220.379,233.274c0,0,4.313,7.085,14.479,7.085c10.166,0,15.499-2.952,15.499-2.952s-7.489,8.497-16.731,10.037
					C224.383,248.985,220.379,233.274,220.379,233.274z"/>
				<path style="fill:#263238;" d="M252.35,211.531c0,0,0.664-5.333,9.925-2.99c4.108,1.039,9.701,7.657,7.814,7.233
					C268.202,215.349,259.898,209.409,252.35,211.531z"/>
				<path style="fill:none;stroke:#263238;stroke-linecap:round;stroke-linejoin:round;stroke-miterlimit:10;" d="M254.451,213.053
					c0,0,1.026,2.053,9.921,3.763"/>
				<path style="fill:#263238;" d="M250.104,193.837c0,0,9.642-5.911,18.847-2.8c9.204,3.111,9.204,11.511,9.204,11.511
					S268.95,191.971,250.104,193.837z"/>
				<path style="fill:#263238;" d="M240.094,192.611c0,0-1.77-8.321-7.082-9.246c-5.312-0.925-13.456,6.934-13.456,6.934
					S233.72,183.827,240.094,192.611z"/>
				<path style="fill:#263238;" d="M233.809,205.264c-0.551,2.405-2.073,4.108-3.4,3.804c-1.327-0.304-1.956-2.5-1.405-4.904
					c0.551-2.405,2.073-4.108,3.4-3.804C233.731,200.663,234.359,202.859,233.809,205.264z"/>
			</g>
		</g>
		<path style="fill:#263238;stroke:#263238;stroke-linecap:round;stroke-linejoin:round;stroke-miterlimit:10;" d="M258.208,163.213
			c0,0-7.317-11.049-10.019-0.626c-2.702,10.422-8.222,17.675-12.854,21.149c-4.632,3.474-12.739-4.632-17.757,5.79
			c-5.018,10.422-0.386,18.143-3.86,23.933c-3.474,5.79-9.65,3.86-8.878,10.036c0.772,6.176,0.386,11.194-6.948,16.213
			c-3.836,2.625-7.334,16.985-7.334,18.143c0,1.158-13.51-23.161-6.562-33.969c6.948-10.808,14.283-11.966,14.283-17.371
			s-8.492-25.091-1.93-34.355c6.562-9.264,14.669-6.562,18.915-10.809c4.246-4.246-0.386-20.845,18.143-20.845
			C251.933,140.502,258.208,158.581,258.208,163.213z"/>
		<g>
			<path style="fill:#FFFFFF;stroke:#263238;stroke-linecap:round;stroke-linejoin:round;stroke-miterlimit:10;" d="
				M183.725,240.711c0,0-0.586,22.564-0.586,26.667s5.568,8.205,6.74,9.084c1.172,0.879,19.048,14.945,19.048,14.945l-6.154,19.048
				l16.704,6.74c0,0,10.257-30.476,9.377-35.165c-0.879-4.689-7.912-9.377-7.912-9.377s5.568-13.48,5.861-15.824
				c0.293-2.344-10.257-6.447-10.257-6.447s-14.066-5.568-17.876-7.326C194.86,241.297,185.483,237.487,183.725,240.711z"/>
			<path style="fill:none;stroke:#263238;stroke-linecap:round;stroke-linejoin:round;stroke-miterlimit:10;" d="M197.985,242.78
				c0,0-7.172-0.978-7.661,0.652c-0.489,1.63-4.238,23.473-4.238,23.473"/>
			
				<line style="fill:none;stroke:#263238;stroke-linecap:round;stroke-linejoin:round;stroke-miterlimit:10;" x1="200.43" y1="244.247" x2="193.91" y2="268.209"/>
			
				<line style="fill:none;stroke:#263238;stroke-linecap:round;stroke-linejoin:round;stroke-miterlimit:10;" x1="209.885" y1="248.159" x2="204.505" y2="269.839"/>
			<path style="fill:none;stroke:#263238;stroke-linecap:round;stroke-linejoin:round;stroke-miterlimit:10;" d="M220.941,272.652
				l-6.329-5.258l3.097-5.705c0,0-0.326,2.282,2.608,1.467"/>
		</g>
		<g>
			<path style="fill:#263238;" d="M335.971,174.306c2.401,1.212,4.633,2.678,6.736,4.395c1.042,0.867,2.049,1.802,2.956,2.869
				c0.902,1.052,1.762,2.268,2.298,3.67c0.569,1.385,0.758,3.016,0.589,4.498c-0.145,1.484-0.592,2.767-0.61,3.784
				c-0.008,0.51,0.023,0.964,0.204,1.404c0.05,0.225,0.207,0.44,0.299,0.663c0.099,0.168,0.172,0.272,0.275,0.35
				c0.301,0.344,1.436,0.386,2.622,0.151c1.2-0.208,2.48-0.564,3.883-0.792c0.704-0.111,1.448-0.194,2.258-0.158
				c0.799,0.032,1.714,0.22,2.54,0.723c0.415,0.241,0.774,0.571,1.087,0.92c0.251,0.338,0.505,0.658,0.712,1.017
				c0.399,0.723,0.702,1.512,0.825,2.287c0.298,1.564,0.126,2.987,0.051,4.28c-0.09,1.282-0.125,2.469,0.221,3.29l0.13,0.304
				l0.183,0.265c0.058,0.108,0.115,0.158,0.161,0.206c0.043,0.056,0.139,0.109,0.203,0.171c0.343,0.233,0.858,0.444,1.41,0.606
				c2.282,0.637,4.949,0.787,7.597,1.176c1.34,0.207,2.696,0.409,4.139,0.973c0.707,0.297,1.507,0.677,2.162,1.539
				c0.167,0.202,0.289,0.459,0.406,0.71c0.083,0.204,0.123,0.34,0.187,0.513c0.121,0.331,0.215,0.651,0.322,0.976
				c0.794,2.538,1.409,5.064,2.738,6.953c0.664,0.932,1.453,1.648,2.482,2.014c1.075,0.424,2.23,0.576,3.543,0.674
				c1.302,0.099,2.768,0.268,4.135,0.741c1.367,0.477,2.618,1.182,3.741,1.993c1.135,0.834,2.101,1.69,3.113,2.534l3.012,2.549
				l6.005,5.12l11.985,10.269c0.21,0.18,0.234,0.495,0.054,0.705c-0.175,0.204-0.483,0.231-0.692,0.065l-24.67-19.545
				c-1.022-0.707-2.102-1.276-3.228-1.644c-1.134-0.361-2.306-0.481-3.622-0.555c-1.304-0.068-2.795-0.214-4.186-0.731
				c-1.48-0.487-2.758-1.589-3.62-2.78c-1.752-2.43-2.395-5.144-3.234-7.571c-0.105-0.297-0.203-0.607-0.315-0.891
				c-0.052-0.134-0.113-0.312-0.158-0.41c-0.033-0.041-0.036-0.091-0.088-0.139c-0.136-0.205-0.546-0.472-1.048-0.662
				c-1.012-0.396-2.277-0.607-3.532-0.783c-2.549-0.37-5.177-0.457-7.983-1.203c-0.706-0.209-1.438-0.463-2.192-0.962
				c-0.189-0.148-0.376-0.271-0.557-0.456c-0.188-0.184-0.356-0.373-0.466-0.551l-0.37-0.551l-0.273-0.596
				c-0.653-1.641-0.502-3.181-0.444-4.496c0.079-1.321,0.183-2.555-0.035-3.582c-0.083-0.527-0.281-0.974-0.509-1.402
				c-0.12-0.209-0.288-0.401-0.419-0.595c-0.132-0.133-0.257-0.259-0.415-0.343c-0.582-0.385-1.711-0.377-2.888-0.171
				c-1.193,0.198-2.45,0.556-3.839,0.812c-0.701,0.121-1.432,0.236-2.275,0.2c-0.819-0.034-1.85-0.238-2.689-0.942
				c-0.416-0.329-0.738-0.766-0.962-1.167c-0.171-0.377-0.385-0.72-0.496-1.137c-0.298-0.791-0.367-1.679-0.331-2.475
				c0.108-1.619,0.561-2.854,0.703-3.985c0.164-1.125,0.091-2.185-0.291-3.259c-0.705-2.15-2.408-4.116-4.167-5.93
				c-1.807-1.8-3.814-3.48-5.874-5.05l-0.015-0.011c-0.22-0.168-0.263-0.482-0.095-0.702
				C335.496,174.254,335.76,174.199,335.971,174.306z"/>
		</g>
		<g>
			<path style="fill:#FFFFFF;stroke:#263238;stroke-linecap:round;stroke-linejoin:round;stroke-miterlimit:10;" d="
				M380.359,313.692l11.21-26.397c0,0,7.232-22.058,11.933-25.674c4.701-3.616,11.21-10.125,13.741-15.549
				c2.531-5.424,5.424-6.87,5.424-1.808s-1.085,9.04-3.254,11.571l13.591-3.037c0,0-1.928,6.105-3.695,8.194
				c-2.184,2.581,3.483,5.33,3.122,10.031c-0.723,9.402,3.268,11.966,1.46,14.497c-1.808,2.531-24.241,18.77-25.326,19.855
				s-8.679,24.228-8.679,24.228L380.359,313.692z"/>
			<path style="fill:none;stroke:#263238;stroke-linecap:round;stroke-linejoin:round;stroke-miterlimit:10;" d="M419.413,255.835
				c0,0-5.704,7.166-6.338,8.646c-0.634,1.48-0.634,11.839-1.903,15.856c-1.268,4.017-2.537,6.342-2.537,6.342"/>
			<path style="fill:#FFFFFF;stroke:#263238;stroke-linecap:round;stroke-linejoin:round;stroke-miterlimit:10;" d="
				M426.612,247.142c0,0-9.725,10.571-9.302,11.839c0.423,1.268,1.691,3.171,2.96,2.96c1.268-0.211,12.473-6.131,12.896-8.457
				C433.589,251.159,430.418,245.874,426.612,247.142z"/>
			<path style="fill:#FFFFFF;stroke:#263238;stroke-linecap:round;stroke-linejoin:round;stroke-miterlimit:10;" d="
				M432.033,277.785c0,0-11.502,5.078-11.607,6.244c-0.105,1.166,0.247,3.136,1.339,3.411c1.092,0.274,12.154-0.554,13.307-2.272
				C436.225,283.449,435.53,278.099,432.033,277.785z"/>
			<path style="fill:#FFFFFF;stroke:#263238;stroke-linecap:round;stroke-linejoin:round;stroke-miterlimit:10;" d="
				M432.774,268.779c0,0-12.546,5.539-12.66,6.81c-0.114,1.271,0.27,3.421,1.461,3.72c1.191,0.299,13.256-0.604,14.514-2.478
				C437.347,274.957,436.589,269.121,432.774,268.779z"/>
			<path style="fill:#FFFFFF;stroke:#263238;stroke-linecap:round;stroke-linejoin:round;stroke-miterlimit:10;" d="
				M432.201,259.614c0,0-12.301,7.417-12.251,8.753c0.05,1.336,0.733,3.518,2.01,3.671c1.277,0.153,13.693-2.384,14.751-4.498
				C437.77,265.428,436.209,259.465,432.201,259.614z"/>
		</g>
		<g>
			<path style="fill:#92E3A9;stroke:#263238;stroke-linecap:round;stroke-linejoin:round;stroke-miterlimit:10;" d="
				M317.078,280.785c0,0,17.719,3.978,17.357,15.187c-0.247,7.673,4.996,27.741,8.328,39.639c1.211,4.322,3.148,8.419,5.872,11.987
				c0.865,1.134,1.788,2.513,2.608,4.028c0.861,1.59-0.536,7.628-0.536,7.628l28.567-51.348l32.545,16.995
				c0,0-14.103,36.161-18.08,49.54c-3.978,13.379-15.911,47.732-20.25,53.156c-4.339,5.424-14.464,7.594-24.951,7.232
				s-16.272-2.893-19.165-7.594c-2.893-4.701-16.634-37.245-16.634-37.245l4.236-36.603"/>
			<path style="fill:none;stroke:#263238;stroke-linecap:round;stroke-linejoin:round;stroke-miterlimit:10;" d="M336.634,372.009
				c2.763-2.469,4.983-4.303,4.983-4.303"/>
			<path style="fill:none;stroke:#263238;stroke-linecap:round;stroke-linejoin:round;stroke-miterlimit:10;" d="M327.177,392.47
				c0,0-2.8-7.841,1.68-12.881c1.228-1.382,2.742-2.899,4.292-4.373"/>
			<g>
				
					<line style="fill:none;stroke:#263238;stroke-linecap:round;stroke-linejoin:round;stroke-miterlimit:10;" x1="394.891" y1="346.405" x2="397.656" y2="347.839"/>
				
					<line style="fill:none;stroke:#263238;stroke-linecap:round;stroke-linejoin:round;stroke-miterlimit:10;" x1="372.34" y1="334.712" x2="390.789" y2="344.278"/>
				
					<line style="fill:none;stroke:#263238;stroke-linecap:round;stroke-linejoin:round;stroke-miterlimit:10;" x1="397.656" y1="318.303" x2="389.218" y2="336.587"/>
			</g>
			<path style="fill:none;stroke:#263238;stroke-linecap:round;stroke-linejoin:round;stroke-miterlimit:10;" d="M335.714,389.981
				c-0.386,2.598-0.257,5.194,2.402,3.333"/>
			
				<line style="fill:none;stroke:#263238;stroke-linecap:round;stroke-linejoin:round;stroke-miterlimit:10;" x1="350.708" y1="359.254" x2="336.605" y2="386.013"/>
		</g>
		<path style="fill:#263238;stroke:#263238;stroke-linecap:round;stroke-linejoin:round;stroke-miterlimit:10;" d="M336.471,219.249
			c-6.562-10.808-13.124-12.739-13.124-20.459s-3.474-17.757-12.739-26.249c-3.252-2.981-7.031-5.261-10.746-7.606
			c-3.361-2.121-6.507-5.194-10.03-6.926c-1.022-0.502-2.128-0.807-3.233-1.083c-5.209-1.3-20.97-5.608-24.629,0.56
			c-8.597-1.235,7.857,17.841,8.652,8.696c-0.64,7.361-6.721,15.042-1.92,21.123c4.801,6.081,13.122,2.24,9.602,11.842
			c-3.521,9.601-6.721,16.963-3.841,22.403c2.17,4.099,4.883,5.837,6.364,8.36c1.036,2.998,0.94,5.059-1.872,8.638
			c-4.246,5.404-5.125,7.575-5.559,16.227c0,0,2.821,5.397-0.434,8.652c-3.255,3.254-10.848,9.763-7.594,15.911
			c3.255,6.147,10.487,5.786,7.594,10.487c-2.893,4.701-16.272,5.786-16.272,16.272s6.147,18.08,12.295,18.804
			c6.147,0.723,9.402,10.487,5.786,13.741c-3.616,3.255-15.188,0.723-15.549,14.103c-0.362,13.38,11.933,13.38,12.656,18.804
			s-7.594,9.402-8.679,4.701c-1.085-4.701,0-6.871,0-6.871s-5.424,4.339-2.893,10.848c2.531,6.509,12.656,6.509,18.803,4.701
			c6.147-1.808,7.955-14.826,7.955-14.826s6.147,6.147,14.103,4.339c7.955-1.808,9.04-7.955,9.04-7.955s-11.21-2.17-10.487-6.871
			s11.571,0.723,16.272-10.487c4.701-11.21-6.509-15.187-8.678-21.335c-2.17-6.147,2.17-5.786,11.933-7.955
			c9.763-2.169,9.04-11.571,3.255-20.612c-5.786-9.04,1.808-13.379,5.062-19.888c3.255-6.509,0.723-15.187,0.723-15.187
			s-2.24-11.319,4.323-20.198C339.173,235.076,343.033,230.057,336.471,219.249z"/>
		<g>
			<path style="fill:#575757;" d="M267.706,156.949c1.136,1.485,2.697,2.876,4.288,3.961c1.622,1.088,3.37,1.944,5.208,2.451
				c0.922,0.242,1.85,0.431,2.792,0.535c0.464,0.087,0.944,0.078,1.416,0.102l0.708,0.031l0.8,0.004
				c1.082,0.008,2.169,0.023,3.329,0.114c0.593,0.055,1.184,0.113,1.879,0.281c0.351,0.087,0.732,0.202,1.156,0.387
				c0.448,0.229,0.949,0.482,1.448,1.085c0.485,0.566,0.775,1.382,0.817,1.992c0.049,0.598-0.012,1.096-0.089,1.473
				c-0.158,0.784-0.365,1.348-0.559,1.9l-1.141,2.988c-0.353,0.958-0.696,1.899-1.001,2.851c-0.251,0.911-0.463,1.673-0.513,2.529
				c-0.297,3.332,1.217,6.718,3.605,9.599c1.196,1.442,2.599,2.767,4.124,3.958c0.777,0.581,1.553,1.163,2.372,1.691
				c0.829,0.543,1.57,0.937,2.753,1.746c2.119,1.459,4.05,3.732,4.799,6.457c0.774,2.707,0.488,5.491-0.308,7.873
				c-0.801,2.404-2.08,4.499-3.564,6.344c-0.365,0.47-0.746,0.922-1.158,1.339c-0.406,0.423-0.792,0.872-1.232,1.253l-2.314,2.116
				c-1.333,1.311-2.43,2.711-3.108,4.227c-0.686,1.512-0.922,3.185-0.855,4.997c0.151,3.641,1.455,7.606,2.784,11.515
				c0.702,2.07,1.353,4.182,1.826,6.403c0.455,2.218,0.738,4.586,0.47,7.063c-0.255,2.471-1.21,4.986-2.659,6.996
				c-1.439,2.03-3.223,3.593-5.029,4.933c-1.792,1.336-3.661,2.487-5.421,3.589c-0.877,0.549-1.721,1.093-2.423,1.64
				c-0.708,0.537-1.19,1.117-1.257,1.377c-0.046,0.134-0.063,0.236-0.027,0.456c0.027,0.209,0.169,0.524,0.347,0.848
				c0.382,0.664,0.982,1.389,1.644,2.08c0.327,0.353,0.686,0.684,1.048,1.038l1.169,1.118c0.77,0.76,1.545,1.512,2.286,2.315
				c1.493,1.586,2.926,3.26,4.19,5.125c1.25,1.864,2.393,3.914,2.94,6.312c0.556,2.384,0.2,5.169-1.108,7.296
				c-0.309,0.537-0.705,0.998-1.059,1.493l-0.975,1.19c-0.629,0.8-1.235,1.623-1.821,2.466c-2.297,3.393-4.364,7.064-6.033,10.823
				l-0.001,0.002l-0.104-1.004c2.178,3.457,4.059,7.015,5.572,10.817c0.74,1.903,1.381,3.864,1.751,5.934
				c0.354,2.05,0.5,4.298-0.364,6.505c-0.428,1.092-1.213,2.105-2.187,2.791c-0.919,0.627-1.776,1.141-2.72,1.611
				c-1.851,0.949-3.802,1.64-5.679,2.287c-1.866,0.645-3.707,1.299-4.801,2.445c-0.53,0.576-0.834,1.306-1.026,2.121
				c-0.067,0.42-0.1,0.862-0.14,1.298l0.04,1.372l-0.996-1.75c0.018,0.607,0.54,2.982-0.067,3c-0.607,0.018-1.113-0.46-1.131-1.066
				v0l-0.047-1.616c0.044-0.553,0.088-1.111,0.182-1.67c0.248-1.123,0.73-2.282,1.567-3.182c0.839-0.862,1.832-1.483,2.806-1.917
				c0.975-0.445,1.944-0.785,2.888-1.114c1.89-0.651,3.706-1.299,5.405-2.17c0.842-0.414,1.695-0.936,2.421-1.428
				c0.654-0.463,1.148-1.088,1.449-1.852c0.612-1.532,0.564-3.438,0.231-5.28c-0.33-1.858-0.928-3.706-1.633-5.515
				c-1.431-3.608-3.293-7.13-5.364-10.415l-0.007-0.01c-0.194-0.307-0.216-0.678-0.097-0.993l0.001-0.003
				c1.551-4.045,3.377-7.91,5.684-11.596c0.581-0.917,1.189-1.82,1.829-2.708l0.979-1.302c0.234-0.38,0.526-0.733,0.723-1.119
				c0.823-1.54,0.968-3.229,0.522-4.945c-0.464-1.719-1.458-3.404-2.624-4.984c-1.17-1.588-2.563-3.071-4.012-4.51
				c-0.712-0.728-1.476-1.424-2.229-2.124l-1.152-1.036c-0.404-0.371-0.832-0.744-1.237-1.153c-0.816-0.811-1.624-1.68-2.339-2.823
				c-0.346-0.586-0.689-1.227-0.88-2.055c-0.2-0.806-0.208-1.794,0.062-2.667c0.262-0.878,0.722-1.581,1.181-2.14
				c0.466-0.565,0.944-0.988,1.415-1.391c0.942-0.779,1.863-1.401,2.756-2.001c1.786-1.187,3.496-2.287,5.062-3.513
				c1.555-1.2,2.941-2.516,3.91-3.965c0.975-1.448,1.529-3.013,1.685-4.747c0.29-3.494-0.919-7.447-2.249-11.259
				c-1.407-4.045-2.936-8.169-3.242-12.998c-0.133-2.391,0.176-5.022,1.211-7.382c1.018-2.364,2.574-4.346,4.245-5.989l2.349-2.169
				c0.362-0.309,0.657-0.671,0.982-1.008c0.332-0.334,0.628-0.691,0.907-1.058c1.153-1.44,2.081-3.023,2.605-4.632
				c0.528-1.608,0.623-3.211,0.23-4.581c-0.384-1.375-1.341-2.524-2.668-3.45c-0.377-0.234-0.593-0.414-1.151-0.736
				c-0.484-0.299-0.984-0.572-1.454-0.894c-0.956-0.617-1.882-1.283-2.785-1.982c-1.786-1.428-3.458-3.031-4.939-4.855
				c-1.474-1.823-2.765-3.881-3.633-6.203c-0.851-2.318-1.224-4.918-0.911-7.45c0.119-1.255,0.505-2.53,0.865-3.636
				c0.375-1.047,0.782-2.08,1.225-3.077l1.28-2.864c0.186-0.432,0.349-0.861,0.415-1.109c0.044-0.136,0.029-0.169,0.049-0.098
				c0.006,0.081,0.095,0.386,0.252,0.542c0.178,0.174,0.199,0.168,0.189,0.147c-0.059-0.031-0.178-0.083-0.337-0.134
				c-0.327-0.102-0.785-0.184-1.238-0.264c-0.937-0.147-1.96-0.244-2.987-0.329l-0.782-0.064l-0.869-0.101
				c-0.578-0.074-1.158-0.117-1.726-0.261c-1.148-0.209-2.263-0.563-3.351-0.967c-2.166-0.842-4.167-2.051-5.879-3.549
				c-1.731-1.506-3.171-3.175-4.323-5.244c-0.295-0.53-0.104-1.2,0.426-1.495c0.483-0.269,1.081-0.135,1.407,0.292L267.706,156.949z
				"/>
			<path style="fill:#575757;" d="M280.618,157.049c3.722,0.238,7.515,0.298,11.275,0.205l5.704-0.158
				c1.022,0.006,2.076,0.073,3.162,0.375c1.066,0.302,2.246,0.849,3.085,1.873c0.862,1.003,1.228,2.263,1.35,3.376
				c0.131,1.133,0.04,2.186-0.099,3.199c-0.293,2.022-0.811,3.896-1.322,5.74c-0.502,1.829-1.074,3.676-1.504,5.404
				c-0.407,1.729-0.619,3.472-0.48,5.128c0.136,1.656,0.638,3.201,1.529,4.565c0.88,1.37,2.148,2.546,3.574,3.57
				c0.715,0.512,1.473,0.987,2.256,1.434c0.395,0.22,0.791,0.438,1.197,0.646c0.397,0.218,0.928,0.481,1.354,0.767
				c1.809,1.124,3.324,2.645,4.529,4.35c2.38,3.429,3.526,7.693,2.998,11.873c-0.256,2.086-0.983,4.118-2.071,5.923
				c-0.557,0.895-1.204,1.729-1.918,2.494c-0.779,0.793-1.378,1.324-1.999,1.998c-1.207,1.306-2.231,2.735-2.894,4.296
				c-0.669,1.558-0.953,3.25-0.905,4.993c0.112,3.504,1.331,7.082,2.63,10.577c1.352,3.471,2.884,7.129,3.477,11.047
				c0.303,1.955,0.363,4.018-0.086,6.028c-0.434,2.013-1.404,3.885-2.636,5.458c-2.492,3.165-5.774,5.322-8.836,7.505
				c-0.766,0.545-1.521,1.093-2.202,1.678c-0.68,0.581-1.296,1.219-1.608,1.895c-0.679,1.308,0.374,2.918,1.616,4.203
				c1.245,1.302,2.787,2.445,4.204,3.742c1.422,1.279,2.814,2.601,4.12,4.019c1.302,1.419,2.516,2.945,3.5,4.648
				c0.965,1.698,1.709,3.632,1.713,5.693l-0.031-0.19c0.354,1.232,0.469,2.428,0.389,3.675c-0.093,1.232-0.44,2.485-1.128,3.562
				c-0.675,1.083-1.701,1.927-2.776,2.5c-0.958,0.526-1.844,1.212-2.646,1.983c-1.589,1.541-2.897,3.482-3.418,5.563
				c-0.243,1.033-0.227,2.107,0.216,2.966c0.425,0.872,1.296,1.467,2.279,1.837c0.336,0.124,0.508,0.497,0.385,0.833
				c-0.124,0.336-0.497,0.509-0.833,0.385l-0.007-0.003c-1.163-0.444-2.351-1.237-2.952-2.484c-0.612-1.229-0.577-2.62-0.282-3.82
				c0.636-2.429,2.093-4.435,3.788-6.126c0.865-0.837,1.822-1.587,2.895-2.182c0.96-0.521,1.773-1.207,2.329-2.1
				c1.123-1.768,1.159-4.176,0.584-6.205l-0.008-0.027c-0.015-0.054-0.023-0.111-0.023-0.164c-0.008-1.758-0.663-3.491-1.569-5.068
				c-0.922-1.58-2.086-3.038-3.351-4.406c-1.265-1.371-2.636-2.655-4.061-3.88c-1.399-1.241-2.944-2.332-4.354-3.747
				c-0.686-0.714-1.366-1.47-1.844-2.456c-0.501-0.943-0.664-2.309-0.147-3.377c0.479-1.06,1.234-1.806,1.97-2.469
				c0.746-0.663,1.52-1.242,2.288-1.811c3.053-2.245,6.163-4.415,8.335-7.292c1.077-1.428,1.841-3.035,2.172-4.744
				c0.34-1.709,0.256-3.506-0.063-5.282c-0.315-1.78-0.857-3.546-1.488-5.287c-0.628-1.742-1.397-3.441-2.124-5.233
				c-1.407-3.554-2.816-7.237-3.042-11.351c-0.101-2.042,0.203-4.185,0.998-6.132c0.785-1.952,1.982-3.668,3.315-5.168
				c0.649-0.735,1.446-1.49,1.983-2.063c0.566-0.634,1.072-1.314,1.504-2.038c0.838-1.461,1.385-3.086,1.561-4.77
				c0.411-3.364-0.563-6.906-2.526-9.682c-0.991-1.379-2.217-2.588-3.642-3.456c-0.364-0.239-0.689-0.391-1.124-0.625
				c-0.44-0.222-0.876-0.458-1.311-0.696c-0.867-0.486-1.723-1.012-2.554-1.598c-1.653-1.171-3.245-2.592-4.439-4.411
				c-1.207-1.801-1.927-3.972-2.064-6.099c-0.159-2.132,0.13-4.197,0.604-6.15c0.496-1.95,1.072-3.72,1.626-5.533
				c0.546-1.795,1.074-3.578,1.364-5.307c0.289-1.71,0.306-3.428-0.443-4.336c-0.693-0.962-2.404-1.384-4.133-1.47
				c-1.797-0.063-3.789-0.059-5.673-0.169c-3.821-0.224-7.619-0.474-11.427-1.158c-0.353-0.063-0.587-0.401-0.524-0.754
				c0.059-0.328,0.355-0.554,0.68-0.533L280.618,157.049z"/>
			<path style="fill:#575757;" d="M254.491,150.117c-2.761-1.295-5.586-2.487-8.411-3.522c-2.828-0.998-5.714-1.893-8.48-2.147
				c-1.357-0.132-2.707-0.072-3.663,0.308c-0.502,0.18-0.82,0.419-1.131,0.749c-0.326,0.313-0.633,0.771-0.898,1.312
				c-0.542,1.07-0.925,2.406-1.202,3.794c-0.271,1.393-0.486,2.843-0.664,4.318c-0.355,2.955-0.507,5.999-0.781,9.091
				c-0.138,1.548-0.287,3.111-0.507,4.706c-0.231,1.6-0.5,3.221-1.081,4.968c-0.311,0.868-0.717,1.835-1.477,2.78
				c-0.756,0.938-1.77,1.622-2.729,2.042c-1.949,0.835-3.665,0.96-5.247,1.137c-3.138,0.28-5.966,0.472-8.137,1.584
				c-2.156,1.053-3.629,3.033-4.478,5.613c-0.913,2.566-1.151,5.279-0.864,8.076c0.254,2.807,1.096,5.665,1.683,8.896
				c0.244,1.64,0.511,3.374,0.226,5.293c-0.277,1.881-1.04,3.829-2.258,5.294c-0.261,0.414-0.625,0.702-0.946,1.045
				c-0.338,0.316-0.65,0.691-1.016,0.948c-0.725,0.529-1.444,1.111-2.207,1.496c-0.377,0.21-0.754,0.433-1.133,0.63l-1.141,0.52
				c-0.763,0.37-1.516,0.619-2.275,0.92c-3.019,1.11-5.96,1.908-8.682,2.981c-2.715,1.057-5.206,2.377-7.063,4.236
				c-0.943,0.915-1.681,1.99-2.291,3.15c-0.34,0.557-0.514,1.237-0.788,1.847c-0.255,0.625-0.356,1.303-0.55,1.951
				c-0.585,2.656-0.472,5.514-0.1,8.44c0.372,2.931,1.015,5.935,1.45,9.085c0.43,3.137,0.652,6.493-0.025,9.857
				c-0.172,0.834-0.446,1.655-0.673,2.48c-0.161,0.422-0.336,0.852-0.524,1.271c-0.229,0.407-0.421,0.832-0.692,1.217
				c-1.028,1.575-2.5,2.87-4.077,3.698c-3.183,1.675-6.458,2.097-9.531,2.52c-3.08,0.404-6.103,0.672-8.805,1.467
				c-1.339,0.404-2.576,0.949-3.583,1.702c-0.475,0.407-0.958,0.784-1.295,1.326l-0.556,0.765c-0.156,0.27-0.259,0.563-0.399,0.84
				l-0.202,0.421l-0.113,0.459c-0.068,0.308-0.173,0.604-0.223,0.922c-0.042,0.654-0.153,1.292-0.08,1.986
				c0.025,1.357,0.338,2.787,0.672,4.219c0.717,2.885,1.757,5.821,2.367,8.998c0.116,0.81,0.292,1.595,0.323,2.435l0.085,1.242
				l-0.048,1.268c0.016,0.842-0.229,1.693-0.354,2.535c-0.227,0.801-0.407,1.577-0.724,2.359c-0.559,1.548-1.377,3.135-2.653,4.407
				c-0.62,0.647-1.346,1.161-2.056,1.612c-0.707,0.428-1.418,0.796-2.035,1.151c-1.26,0.705-2.191,1.535-2.906,2.689
				c-0.706,1.079-0.857,2.24-0.562,3.577c0.278,1.326,0.885,2.722,1.457,4.154c0.576,1.435,1.159,2.919,1.555,4.474
				c0.872,3.081,0.908,6.432,0.491,9.508c-0.219,1.554-0.459,3.108-0.889,4.635c-0.42,1.524-0.913,3.048-1.727,4.469
				c-0.196,0.356-0.444,0.694-0.665,1.039c-0.238,0.338-0.54,0.645-0.81,0.964c-0.626,0.575-1.345,1.133-2.235,1.348
				c-0.869,0.297-1.796,0.148-2.623-0.065c-0.39-0.164-0.784-0.327-1.155-0.516l-1.03-0.675c-0.253-0.166-0.324-0.506-0.158-0.759
				c0.162-0.247,0.49-0.32,0.741-0.169l0.068,0.041l0.92,0.556c0.318,0.144,0.643,0.262,0.962,0.39
				c0.652,0.126,1.317,0.225,1.914-0.02c1.23-0.366,2.15-1.554,2.803-2.82c1.305-2.603,1.8-5.638,2.131-8.612
				c0.313-3.018,0.191-5.933-0.682-8.769c-0.401-1.417-0.982-2.789-1.59-4.188c-0.599-1.404-1.29-2.821-1.699-4.497
				c-0.217-0.829-0.276-1.757-0.194-2.689c0.088-0.456,0.182-0.928,0.331-1.367c0.19-0.413,0.355-0.872,0.586-1.242
				c0.842-1.508,2.259-2.809,3.668-3.624c1.411-0.837,2.613-1.482,3.479-2.438c0.888-0.93,1.501-2.155,1.943-3.499
				c0.248-0.649,0.396-1.384,0.571-2.062c0.064-0.681,0.263-1.329,0.22-2.033l0.014-1.037l-0.105-1.056
				c-0.036-0.7-0.227-1.417-0.338-2.126c-0.593-2.86-1.656-5.728-2.48-8.793c-0.388-1.549-0.774-3.137-0.847-4.858
				c-0.094-0.842,0.008-1.735,0.072-2.614c0.061-0.441,0.189-0.883,0.287-1.324l0.164-0.66l0.271-0.631
				c0.19-0.416,0.356-0.849,0.578-1.245l0.77-1.121c0.488-0.764,1.201-1.395,1.889-1.981c1.441-1.119,3.061-1.833,4.65-2.343
				c3.197-0.989,6.338-1.29,9.337-1.744c2.981-0.437,5.92-0.964,8.185-2.233c1.133-0.624,2.007-1.46,2.65-2.464
				c0.173-0.243,0.283-0.533,0.434-0.792l0.339-0.866c0.158-0.663,0.371-1.306,0.498-1.978c0.496-2.694,0.293-5.567-0.163-8.496
				c-0.452-2.935-1.15-5.941-1.609-9.104c-0.464-3.147-0.672-6.535,0.053-9.91c0.228-0.828,0.372-1.683,0.685-2.487
				c0.336-0.798,0.564-1.625,1.005-2.395c0.803-1.568,1.827-3.051,3.079-4.289c2.496-2.519,5.584-4.101,8.566-5.286
				c2.997-1.194,6-2.027,8.744-3.06c2.715-1.034,5.273-2.271,6.687-4.136c0.754-0.919,1.108-1.941,1.298-3.081
				c0.184-1.139-0.005-2.496-0.223-3.88c-0.514-2.815-1.442-5.884-1.779-9.21c-0.371-3.307-0.096-6.867,1.047-10.108
				c0.53-1.636,1.334-3.28,2.467-4.764c1.131-1.484,2.669-2.738,4.333-3.579c3.381-1.699,6.878-1.809,9.813-2.124
				c1.461-0.147,2.858-0.35,3.738-0.761c0.443-0.202,0.724-0.419,0.934-0.68c0.206-0.253,0.437-0.712,0.635-1.29
				c0.768-2.411,1.029-5.514,1.289-8.506c0.248-3.033,0.503-6.128,0.915-9.275c0.209-1.575,0.469-3.165,0.886-4.77
				c0.412-1.603,0.928-3.239,1.853-4.877c0.458-0.812,1.039-1.637,1.853-2.359c0.802-0.724,1.851-1.281,2.825-1.531
				c1.988-0.55,3.802-0.377,5.471-0.095c1.671,0.311,3.223,0.837,4.722,1.416c1.5,0.58,2.935,1.258,4.324,2.005
				c2.788,1.475,5.412,3.16,7.895,5.074c0.242,0.187,0.287,0.534,0.1,0.775c-0.161,0.209-0.443,0.271-0.672,0.163L254.491,150.117z"
				/>
			<path style="fill:none;stroke:#575757;stroke-linecap:round;stroke-linejoin:round;stroke-miterlimit:10;" d="M228.054,150.67
				c0,0-5.17,15.51-15.112,15.908c-9.942,0.398-24.657,7.954-24.259,20.282c0.398,12.328,6.363,20.282-0.398,24.259
				s-26.645,7.158-27.44,18.691c-0.795,11.533,2.784,25.452-1.193,30.224c-3.977,4.772-21.873,3.977-28.236,15.908
				c-6.363,11.931,3.579,12.328,2.386,25.85s-7.954,13.521-9.545,21.077c-1.591,7.556,1.988,14.317,4.375,14.715"/>
		</g>
		<g>
			<path style="fill:#92E3A9;stroke:#263238;stroke-linecap:round;stroke-linejoin:round;stroke-miterlimit:10;" d="
				M190.382,297.596c0,0,10.982,4.524,21.469,7.779c10.487,3.255,16.634,6.509,16.634,6.509s-18.08,64.366-18.08,65.451
				c0,1.085-6.871,35.438-9.402,42.67c-2.531,7.232-16.995,18.442-23.504,20.612c-6.509,2.17-18.08,3.616-27.482-7.232
				c-9.402-10.848-11.933-12.656-12.295-19.165C137.36,407.709,190.382,297.596,190.382,297.596z"/>
			<g>
				<path style="fill:#92E3A9;stroke:#263238;stroke-linecap:round;stroke-linejoin:round;stroke-miterlimit:10;" d="
					M204.143,309.778c0,2.144-1.738,3.882-3.882,3.882s-3.882-1.738-3.882-3.882c0-2.144,1.738-3.882,3.882-3.882
					S204.143,307.634,204.143,309.778z"/>
				<path style="fill:none;stroke:#263238;stroke-linecap:round;stroke-linejoin:round;stroke-miterlimit:10;" d="M208.995,306.22
					l-6.793,20.703c0,0,1.617,4.852-0.323,8.734c-1.941,3.882-6.146,4.529-6.47,6.793c-0.324,2.264,0,4.852,0,4.852"/>
			</g>
			
				<line style="fill:none;stroke:#263238;stroke-linecap:round;stroke-linejoin:round;stroke-miterlimit:10;" x1="203.292" y1="351.09" x2="207.314" y2="352.527"/>
			
				<line style="fill:none;stroke:#263238;stroke-linecap:round;stroke-linejoin:round;stroke-miterlimit:10;" x1="181.06" y1="343.151" x2="199.326" y2="349.674"/>
		</g>
	</g>
</g>
</svg>
